<svg width="24" height="24" viewBox="0 0 24 24" fill="none" xmlns="http://www.w3.org/2000/svg">
<path opacity="0.4" fill-rule="evenodd" clip-rule="evenodd" d="M12 1.00012C17.9734 1.00012 23 5.38077 23 11.0001C23 13.4863 22.0611 16.194 20.3598 18.0673C20.1958 18.2478 20.0977 18.3563 20.0302 18.4384C20.0204 18.4503 20.0123 18.4605 20.0056 18.469L20.005 18.4786C20.0004 18.5572 20 18.6655 20 18.8667L20 18.9348C20.0001 19.7321 20.0001 20.4298 19.9282 20.9692C19.8545 21.5218 19.6748 22.1811 19.0751 22.6076C18.9362 22.7063 18.7864 22.7886 18.6285 22.8528C17.9468 23.1299 17.2941 22.9277 16.7882 22.6934C16.2945 22.4646 15.7058 22.0902 15.033 21.6622L14.9756 21.6257L14.1249 21.0846C13.9575 20.9781 13.8699 20.923 13.8042 20.8868L13.7982 20.8834L13.7738 20.8845C13.6819 20.8895 13.5561 20.9029 13.3337 20.9274C12.8961 20.9754 12.4511 21.0001 12 21.0001C6.02661 21.0001 1.00003 16.6195 1.00003 11.0001C1.00003 5.38077 6.02661 1.00012 12 1.00012Z" fill="#8C939E"/>
<path fill-rule="evenodd" clip-rule="evenodd" d="M9.00006 12.0002H7.00006V10.0002H9.00006V12.0002Z" fill="#8C939E"/>
<path fill-rule="evenodd" clip-rule="evenodd" d="M13.0001 12.0002H11.0001V10.0002H13.0001V12.0002Z" fill="#8C939E"/>
<path fill-rule="evenodd" clip-rule="evenodd" d="M17 12.0002H15V10.0002H17V12.0002Z" fill="#8C939E"/>
</svg>
