<svg width="24" height="24" viewBox="0 0 24 24" fill="none" xmlns="http://www.w3.org/2000/svg">
<path fill-rule="evenodd" clip-rule="evenodd" d="M6 16.0002H18.5H19C19.5523 16.0002 20 16.448 20 17.0002C20 17.5525 19.5523 18.0002 19 18.0002H18.5C17.6716 18.0002 17 18.6718 17 19.5002C17 20.3287 17.6716 21.0002 18.5 21.0002H19C19.5523 21.0002 20 21.448 20 22.0002C20 22.5525 19.5523 23.0002 19 23.0002H18.5H6C4.34315 23.0002 3 21.6571 3 20.0002V19.0002C3 17.3434 4.34315 16.0002 6 16.0002Z" fill="#8C939E"/>
<path opacity="0.48" fill-rule="evenodd" clip-rule="evenodd" d="M10 1.00013L9.92943 1.00012H9.92939C8.57529 1.00009 7.45869 1.00006 6.57494 1.11888C5.64711 1.24362 4.82768 1.51559 4.17158 2.1717C3.51547 2.82781 3.2435 3.64723 3.11876 4.57506C2.99994 5.45881 2.99997 6.57541 3 7.92951V7.92955L3 8.00012V17.0001V19.5001H5V18.0001H19C19.5523 18.0001 20 17.5524 20 17.0001V8.00012V7.92958V7.92956C20 6.57544 20.0001 5.45882 19.8813 4.57506C19.7565 3.64723 19.4845 2.82781 18.8284 2.1717C18.1723 1.51559 17.3529 1.24362 16.4251 1.11888C15.5413 1.00006 14.4247 1.00009 13.0706 1.00012H13.0706L13 1.00013H10Z" fill="#8C939E"/>
</svg>
