<svg width="24" height="24" viewBox="0 0 24 24" fill="none" xmlns="http://www.w3.org/2000/svg">
<path d="M10.9995 21.0002V1.00024H12.9995V21.0002H16.9995V23.0002H6.99948V21.0002H10.9995Z" fill="#8B95A1"/>
<path opacity="0.4" d="M17.1601 1.99998L17.3142 1.9998C18.0646 1.99854 18.7312 1.99741 19.3335 2.27444C19.9358 2.55146 20.3688 3.05829 20.8562 3.62886L20.9564 3.74602L21.6752 4.5846C21.9138 4.86288 22.1493 5.13752 22.3175 5.39227C22.5087 5.6817 22.6827 6.04473 22.6827 6.49998C22.6827 6.95522 22.5087 7.31825 22.3175 7.60768C22.1493 7.86243 21.9138 8.13706 21.6752 8.41534L20.9564 9.25393L20.8562 9.37109C20.3688 9.94166 19.9358 10.4485 19.3335 10.7255C18.7312 11.0025 18.0646 11.0014 17.3142 11.0001L17.1601 11H12.9998V17C12.9998 17.5523 12.5521 18 11.9998 18H6.83956L6.68539 18.0001C5.93501 18.0014 5.26842 18.0025 4.66612 17.7255C4.06381 17.4485 3.63086 16.9417 3.14347 16.3711L3.04327 16.2539L2.32447 15.4153C2.08586 15.1371 1.85034 14.8624 1.6821 14.6077C1.49094 14.3182 1.31689 13.9552 1.31689 13.5C1.31689 13.0447 1.49094 12.6817 1.6821 12.3923C1.85035 12.1375 2.08585 11.8629 2.32448 11.5846L3.04327 10.746L3.14347 10.6289C3.63086 10.0583 4.06381 9.55146 4.66612 9.27444C5.26842 8.99741 5.935 8.99854 6.6854 8.9998L6.83956 8.99998H10.9998V2.99998C10.9998 2.44769 11.4475 1.99998 11.9998 1.99998H17.1601Z" fill="#8B95A1"/>
</svg>
