<svg width="24" height="24" viewBox="0 0 24 24" fill="none" xmlns="http://www.w3.org/2000/svg">
<g opacity="0.4">
<path d="M17.4995 11.6381C17.4995 11.2381 17.7378 10.8765 18.1055 10.7189L22.2068 8.96128C22.5537 8.81258 22.9995 9.04235 22.9995 9.41984V20.0652C22.9995 20.3866 22.8449 20.6885 22.5842 20.8764C22.3234 21.0644 21.9882 21.1155 21.6832 21.0139L18.8269 20.0618C18.4023 19.9202 18.0506 19.8043 17.753 19.7109C17.3137 19.573 16.9995 19.1706 16.9995 18.7102V15.2505C16.9995 15.1124 17.1114 15.0005 17.2495 15.0005C17.3875 15.0005 17.4995 14.8886 17.4995 14.7505V11.6381Z" fill="#8C939E"/>
<path d="M10.5161 5.68883C10.9679 5.46293 11.4995 5.79145 11.4995 6.29655V14.0005C11.4995 14.5528 11.9472 15.0005 12.4995 15.0005H13.9995C14.5517 15.0005 14.9995 15.4482 14.9995 16.0005V19.0559C14.9995 19.4536 14.7637 19.8132 14.4055 19.9859C14.1441 20.112 13.8409 20.2625 13.4828 20.4416L11.2405 21.5628C10.8831 21.7417 10.5555 21.9057 10.2479 22.0507C9.6413 22.3367 8.99945 21.8762 8.99945 21.2056V7.07452C8.99945 6.67684 9.23523 6.3172 9.59344 6.14445C9.85484 6.01839 10.158 5.86787 10.5161 5.68883Z" fill="#8C939E"/>
<path d="M5.85364 22.3939C6.44519 22.5731 6.99945 22.1132 6.99945 21.4951V7.42019C6.99945 6.95975 6.68523 6.55737 6.24591 6.41951C5.94829 6.32611 5.59662 6.21016 5.17202 6.06862L2.31568 5.11651C2.01073 5.01486 1.67551 5.066 1.41474 5.25395C1.15397 5.4419 0.999451 5.74375 0.999451 6.06519V20.0652C0.999451 20.4956 1.27488 20.8778 1.68322 21.0139L4.71991 22.0262C5.13125 22.1635 5.50507 22.2883 5.85364 22.3939Z" fill="#8C939E"/>
</g>
<path d="M14.9466 0.606306C14.6366 0.451312 14.2685 0.467876 13.9737 0.650083C13.6789 0.832289 13.4994 1.15416 13.4994 1.50073V13.0007H15.4994V9.66013L21.4189 7.12322C22.0744 6.84228 22.4994 6.19772 22.4994 5.48454C22.4994 4.80926 22.1179 4.19193 21.5139 3.88994L14.9466 0.606306Z" fill="#8C939E"/>
</svg>
