<svg width="24" height="24" viewBox="0 0 24 24" fill="none" xmlns="http://www.w3.org/2000/svg">
<path d="M5.10001 18.8129C4.84167 18.8129 4.62084 18.7212 4.43751 18.5379C4.25417 18.3545 4.16251 18.1337 4.16251 17.8754C4.16251 17.617 4.25417 17.3962 4.43751 17.2129C4.62084 17.0295 4.84167 16.9379 5.10001 16.9379H6.03751V10.1629C6.03751 8.77955 6.45626 7.55038 7.29376 6.47538C8.13126 5.40038 9.21667 4.69205 10.55 4.35038V3.70038C10.55 3.30038 10.6917 2.9608 10.975 2.68163C11.2583 2.40246 11.6 2.26288 12 2.26288C12.4 2.26288 12.7417 2.40246 13.025 2.68163C13.3083 2.9608 13.45 3.30038 13.45 3.70038V4.35038C14.7833 4.69205 15.8688 5.40038 16.7063 6.47538C17.5438 7.55038 17.9625 8.77955 17.9625 10.1629V16.9379H18.9C19.1583 16.9379 19.3792 17.0295 19.5625 17.2129C19.7458 17.3962 19.8375 17.617 19.8375 17.8754C19.8375 18.1337 19.7458 18.3545 19.5625 18.5379C19.3792 18.7212 19.1583 18.8129 18.9 18.8129H5.10001ZM12 21.7004C11.4583 21.7004 10.9979 21.5108 10.6188 21.1316C10.2396 20.7525 10.05 20.292 10.05 19.7504H13.95C13.95 20.292 13.7604 20.7525 13.3813 21.1316C13.0021 21.5108 12.5417 21.7004 12 21.7004Z" fill="#8B95A1"/>
</svg>
