<svg width="24" height="24" viewBox="0 0 24 24" fill="none" xmlns="http://www.w3.org/2000/svg">
<path opacity="0.48" fill-rule="evenodd" clip-rule="evenodd" d="M5.50002 1.00012C4.39545 1.00012 3.50002 1.89555 3.50002 3.00012V8.30478L1.33107 10.2568L2.669 11.7434L3.50003 10.9955L3.50003 18.066C3.49998 18.9524 3.49994 19.7163 3.58218 20.3279C3.67031 20.9834 3.86905 21.6118 4.37871 22.1215C4.88838 22.6311 5.51673 22.8299 6.17224 22.918C6.78391 23.0002 7.54773 23.0002 8.43423 23.0001H15.5658C16.4523 23.0002 17.2162 23.0002 17.8278 22.918C18.4833 22.8299 19.1117 22.6311 19.6214 22.1215C20.131 21.6118 20.3298 20.9834 20.4179 20.3279C20.5001 19.7163 20.5001 18.9524 20.5 18.0659L20.5 10.9955L21.3311 11.7434L22.669 10.2568L15.2991 3.62392C14.7022 3.08661 14.1846 2.62077 13.7174 2.29772C13.2148 1.95023 12.6652 1.69086 12 1.69086C11.3349 1.69086 10.7852 1.95023 10.2827 2.29772C10.0366 2.46787 9.77655 2.67763 9.4983 2.91657C9.4545 1.85075 8.5766 1.00012 7.50002 1.00012H5.50002Z" fill="#8C939E"/>
<path d="M9.99328 5.15176C10.6492 4.56142 11.0714 4.18406 11.4203 3.94283C11.7457 3.71781 11.8978 3.69092 12.0002 3.69092C12.1025 3.69092 12.2546 3.71781 12.5801 3.94283C12.929 4.18406 13.3511 4.56142 14.0071 5.15176L21.3312 11.7435L22.6691 10.2569L15.2993 3.62402C14.7023 3.08669 14.1848 2.62085 13.7175 2.29778C13.215 1.95029 12.6653 1.69092 12.0002 1.69092C11.335 1.69092 10.7854 1.95029 10.2828 2.29778C9.81558 2.62084 9.29805 3.08668 8.70108 3.62401L1.33121 10.2569L2.66914 11.7435L9.99328 5.15176Z" fill="#8C939E"/>
<path d="M11.0002 18.0002H13.0002V16.0002H11.0002V18.0002Z" fill="#8C939E"/>
</svg>
