<svg width="24" height="24" viewBox="0 0 24 24" fill="none" xmlns="http://www.w3.org/2000/svg">
<path d="M8.73636 20.6364H15.2545C16.0636 20.6364 16.4727 19.6546 15.9 19.0818L12.6364 15.8182C12.2818 15.4636 11.7091 15.4636 11.3545 15.8182L8.09091 19.0818C7.52727 19.6546 7.92727 20.6364 8.73636 20.6364ZM20.1818 3.36365H3.81818C2.81818 3.36365 2 4.18183 2 5.18183V16.0909C2 17.0909 2.81818 17.9091 3.81818 17.9091H6.54545C7.04545 17.9091 7.45455 17.5 7.45455 17C7.45455 16.5 7.04545 16.0909 6.54545 16.0909H4.72727C4.22727 16.0909 3.81818 15.6818 3.81818 15.1818V6.09092C3.81818 5.59092 4.22727 5.18183 4.72727 5.18183H19.2727C19.7727 5.18183 20.1818 5.59092 20.1818 6.09092V15.1818C20.1818 15.6818 19.7727 16.0909 19.2727 16.0909H17.4545C16.9545 16.0909 16.5455 16.5 16.5455 17C16.5455 17.5 16.9545 17.9091 17.4545 17.9091H20.1818C21.1818 17.9091 22 17.0909 22 16.0909V5.18183C22 4.18183 21.1818 3.36365 20.1818 3.36365Z" fill="#8B95A1"/>
</svg>
