<svg width="24" height="24" viewBox="0 0 24 24" fill="none" xmlns="http://www.w3.org/2000/svg">
<path d="M12 1.49997C12.5328 1.49997 12.9648 1.93205 12.9648 2.46481V3.18649C17.0906 3.63303 20.3659 6.90942 20.8125 11.0351H21.5352C22.0679 11.0351 22.5 11.4672 22.5 12C22.5 12.5327 22.0679 12.9648 21.5352 12.9648H20.8125C20.3659 17.0905 17.0905 20.3659 12.9648 20.8125V21.5351C12.9648 22.0679 12.5328 22.5 12 22.5C11.4672 22.5 11.0352 22.0679 11.0352 21.5351V20.8125C6.90946 20.3659 3.63407 17.0905 3.1875 12.9648H2.46484C1.93208 12.9648 1.5 12.5327 1.5 12C1.50002 11.4672 1.93209 11.0351 2.46484 11.0351H3.1875C3.63409 6.90941 6.90942 3.63302 11.0352 3.18649V2.46481C11.0352 1.93205 11.4672 1.49997 12 1.49997ZM12.9648 5.73239C12.9648 6.26515 12.5328 6.69723 12 6.69724C11.4672 6.69724 11.0352 6.26515 11.0352 5.73239V5.13083C7.97628 5.55655 5.55764 7.97627 5.13184 11.0351H5.73242C6.26517 11.0351 6.69725 11.4672 6.69727 12C6.69727 12.5327 6.26518 12.9648 5.73242 12.9648H5.13184C5.55761 16.0236 7.97633 18.4424 11.0352 18.8681V18.2675C11.0352 17.7348 11.4672 17.3027 12 17.3027C12.5328 17.3027 12.9648 17.7348 12.9648 18.2675V18.8681C16.0237 18.4423 18.4424 16.0236 18.8682 12.9648H18.2676C17.7348 12.9648 17.3027 12.5327 17.3027 12C17.3028 11.4672 17.7348 11.0351 18.2676 11.0351H18.8682C18.4424 7.97627 16.0237 5.55656 12.9648 5.13083V5.73239ZM12 8.18649C14.1062 8.18649 15.8135 9.89376 15.8135 12C15.8135 14.1062 14.1062 15.8134 12 15.8134C9.89374 15.8134 8.18652 14.1062 8.18652 12C8.18653 9.89377 9.89375 8.18649 12 8.18649ZM12 10.1152C10.9593 10.1152 10.1152 10.9593 10.1152 12C10.1152 13.0407 10.9593 13.8847 12 13.8847C13.0407 13.8847 13.8848 13.0407 13.8848 12C13.8848 10.9593 13.0407 10.1152 12 10.1152Z" fill="#8B95A1"/>
</svg>
