<svg width="24" height="24" viewBox="0 0 24 24" fill="none" xmlns="http://www.w3.org/2000/svg">
<path fill-rule="evenodd" clip-rule="evenodd" d="M6.737 20.7071H4C3.73478 20.7071 3.48043 20.6018 3.29289 20.4142C3.10536 20.2267 3 19.9723 3 19.7071V13.1811C3 12.9159 3.10536 12.6615 3.29289 12.474C3.48043 12.2865 3.73478 12.1811 4 12.1811H6.737C7.00222 12.1811 7.25657 12.2865 7.44411 12.474C7.63164 12.6615 7.737 12.9159 7.737 13.1811V19.7071C7.737 19.9723 7.63164 20.2267 7.44411 20.4142C7.25657 20.6018 7.00222 20.7071 6.737 20.7071ZM13.369 20.7071H10.632C10.3668 20.7071 10.1124 20.6018 9.92489 20.4142C9.73736 20.2267 9.632 19.9723 9.632 19.7071V4C9.632 3.73478 9.73736 3.48043 9.92489 3.29289C10.1124 3.10536 10.3668 3 10.632 3H13.369C13.6342 3 13.8886 3.10536 14.0761 3.29289C14.2636 3.48043 14.369 3.73478 14.369 4V19.7071C14.369 19.9723 14.2636 20.2267 14.0761 20.4142C13.8886 20.6018 13.6342 20.7071 13.369 20.7071ZM20 20.7071H17.263C16.9978 20.7071 16.7434 20.6018 16.5559 20.4142C16.3684 20.2267 16.263 19.9723 16.263 19.7071V8.5C16.263 8.23478 16.3684 7.98043 16.5559 7.79289C16.7434 7.60536 16.9978 7.5 17.263 7.5H20C20.2652 7.5 20.5196 7.60536 20.7071 7.79289C20.8946 7.98043 21 8.23478 21 8.5V19.7071C21 19.9723 20.8946 20.2267 20.7071 20.4142C20.5196 20.6018 20.2652 20.7071 20 20.7071Z" fill="#8B95A1"/>
</svg>
