<svg width="24" height="24" viewBox="0 0 24 24" fill="none" xmlns="http://www.w3.org/2000/svg">
<path d="M8.4 21.6C6.5 21.6 4.5 20.9 3.1 19.4C0.199999 16.5 0.199999 11.7 3.1 8.69999L7.6 4.19999C8 3.79999 8.7 3.79999 9.2 4.19999C9.6 4.59999 9.6 5.29999 9.2 5.79999L4.7 10.3C2.6 12.4 2.6 15.8 4.7 17.8C6.8 19.9 10.2 19.9 12.2 17.8L20 9.99999C21.2 8.79999 21.2 6.69999 20 5.49999C18.8 4.29999 16.7 4.29999 15.5 5.49999L8.4 12.6C8 13 8 13.7 8.4 14.1C8.8 14.5 9.5 14.5 9.9 14.1L14.7 9.29999C15.1 8.89999 15.8 8.89999 16.3 9.29999C16.7 9.69999 16.7 10.4 16.3 10.9L11.5 15.7C10.1 17 8 17 6.8 15.7C5.5 14.4 5.5 12.4 6.8 11.1L13.9 3.99999C16 1.89999 19.4 1.89999 21.5 3.99999C23.6 6.09999 23.6 9.49999 21.5 11.6L13.7 19.4C12.3 20.8 10.4 21.6 8.4 21.6Z" fill="#8B95A1"/>
</svg>
