<svg width="24" height="24" viewBox="0 0 24 24" fill="none" xmlns="http://www.w3.org/2000/svg">
<path fill-rule="evenodd" clip-rule="evenodd" d="M12 18.5C7.879 18.5 4.397 17.395 2.377 15.654C2.138 16.083 2 16.533 2 17C2 19.762 6.478 22 12 22C17.522 22 22 19.762 22 17C22 16.533 21.862 16.083 21.623 15.654C19.604 17.395 16.121 18.5 12 18.5Z" fill="#8B95A1"/>
<path fill-rule="evenodd" clip-rule="evenodd" d="M12 13.5C7.879 13.5 4.397 12.395 2.377 10.654C2.138 11.083 2 11.533 2 12C2 14.762 6.478 17 12 17C17.522 17 22 14.762 22 12C22 11.533 21.862 11.083 21.623 10.654C19.604 12.395 16.121 13.5 12 13.5Z" fill="#8B95A1"/>
<path fill-rule="evenodd" clip-rule="evenodd" d="M12 12C17.522 12 22 9.762 22 7C22 4.239 17.522 2 12 2C6.478 2 2 4.239 2 7C2 9.762 6.478 12 12 12Z" fill="#8B95A1"/>
</svg>
