<svg width="24" height="24" viewBox="0 0 24 24" fill="none" xmlns="http://www.w3.org/2000/svg">
<path fill-rule="evenodd" clip-rule="evenodd" d="M19.735 3.81198V1.70798C19.7343 1.61644 19.7091 1.52676 19.662 1.44825C19.6149 1.36974 19.5477 1.30525 19.4673 1.26148C19.3869 1.21771 19.2962 1.19625 19.2048 1.19933C19.1133 1.2024 19.0243 1.22991 18.947 1.27898C14.75 3.90098 13.67 10.171 13.4 12.71C13.3857 12.8489 13.4008 12.9893 13.4442 13.122C13.4877 13.2548 13.5586 13.3769 13.6524 13.4804C13.7461 13.584 13.8606 13.6666 13.9883 13.7231C14.1161 13.7795 14.2543 13.8084 14.394 13.808L16.974 13.812L16.696 21.878C16.6886 22.0821 16.7224 22.2856 16.7954 22.4764C16.8684 22.6671 16.9791 22.8412 17.1209 22.9882C17.2627 23.1353 17.4326 23.2522 17.6206 23.3321C17.8086 23.4119 18.0107 23.4531 18.215 23.4531C18.4192 23.4531 18.6214 23.4119 18.8094 23.3321C18.9974 23.2522 19.1673 23.1353 19.3091 22.9882C19.4509 22.8412 19.5616 22.6671 19.6346 22.4764C19.7076 22.2856 19.7414 22.0821 19.734 21.878V3.81198H19.735ZM11.388 1.01898C11.1228 1.01898 10.8684 1.12434 10.6809 1.31188C10.4933 1.49941 10.388 1.75377 10.388 2.01898V6.18198C10.388 6.24398 10.375 6.30198 10.373 6.36298H8.59199V2.01898C8.59199 1.75377 8.48663 1.49941 8.2991 1.31188C8.11156 1.12434 7.85721 1.01898 7.59199 1.01898C7.32677 1.01898 7.07242 1.12434 6.88488 1.31188C6.69735 1.49941 6.59199 1.75377 6.59199 2.01898V6.36298H4.81099C4.80899 6.30198 4.79599 6.24398 4.79599 6.18198V2.01898C4.79599 1.75377 4.69063 1.49941 4.5031 1.31188C4.31556 1.12434 4.06121 1.01898 3.79599 1.01898C3.53077 1.01898 3.27642 1.12434 3.08888 1.31188C2.90135 1.49941 2.79599 1.75377 2.79599 2.01898V6.18198C2.79599 8.75298 4.37299 10.909 6.48499 11.479L6.07299 21.88C6.06779 22.0828 6.10324 22.2846 6.17726 22.4735C6.25129 22.6624 6.36238 22.8346 6.50399 22.9799C6.64561 23.1252 6.81487 23.2407 7.00182 23.3195C7.18876 23.3983 7.3896 23.439 7.59249 23.439C7.79538 23.439 7.99622 23.3983 8.18316 23.3195C8.37011 23.2407 8.53937 23.1252 8.68099 22.9799C8.8226 22.8346 8.93369 22.6624 9.00772 22.4735C9.08174 22.2846 9.11719 22.0828 9.11199 21.88L8.69999 11.479C10.811 10.909 12.388 8.75298 12.388 6.18198V2.01898C12.388 1.75377 12.2826 1.49941 12.0951 1.31188C11.9076 1.12434 11.6532 1.01898 11.388 1.01898Z" fill="#8B95A1"/>
</svg>
