<svg width="24" height="24" viewBox="0 0 24 24" fill="none" xmlns="http://www.w3.org/2000/svg">
<g clip-path="url(#clip0_24089_934)">
<path fill-rule="evenodd" clip-rule="evenodd" d="M6.91498 15.88V8.92096H4.51498V15.881C4.51498 17.865 6.12998 19.481 8.11498 19.481H15.073V17.081H8.11498C7.45298 17.081 6.91498 16.542 6.91498 15.881" fill="#8B95A1"/>
<path fill-rule="evenodd" clip-rule="evenodd" d="M22.273 17.08H19.473V8.12098C19.4719 7.16643 19.0923 6.25127 18.4175 5.57621C17.7426 4.90114 16.8275 4.5213 15.873 4.51997H6.91499V1.72097C6.90597 1.40858 6.77553 1.112 6.55138 0.894227C6.32723 0.67645 6.02701 0.554626 5.71449 0.554626C5.40196 0.554626 5.10175 0.67645 4.87759 0.894227C4.65344 1.112 4.523 1.40858 4.51399 1.72097V4.51997H1.71399C1.40159 4.52899 1.10502 4.65943 0.887239 4.88358C0.669462 5.10773 0.547638 5.40795 0.547638 5.72047C0.547638 6.033 0.669462 6.33322 0.887239 6.55737C1.10502 6.78152 1.40159 6.91196 1.71399 6.92097H15.873C16.535 6.92097 17.073 7.45897 17.073 8.12098V22.28C17.073 22.4376 17.104 22.5936 17.1643 22.7392C17.2246 22.8848 17.313 23.0171 17.4245 23.1285C17.5359 23.2399 17.6682 23.3283 17.8138 23.3886C17.9594 23.4489 18.1154 23.48 18.273 23.48C18.4306 23.48 18.5866 23.4489 18.7322 23.3886C18.8778 23.3283 19.0101 23.2399 19.1215 23.1285C19.2329 23.0171 19.3213 22.8848 19.3816 22.7392C19.4419 22.5936 19.473 22.4376 19.473 22.28V19.48H22.273C22.4306 19.48 22.5866 19.4489 22.7322 19.3886C22.8778 19.3283 23.0101 19.2399 23.1215 19.1285C23.2329 19.0171 23.3213 18.8848 23.3816 18.7392C23.4419 18.5936 23.473 18.4376 23.473 18.28C23.473 18.1224 23.4419 17.9663 23.3816 17.8208C23.3213 17.6752 23.2329 17.5429 23.1215 17.4314C23.0101 17.32 22.8778 17.2316 22.7322 17.1713C22.5866 17.111 22.4306 17.08 22.273 17.08Z" fill="#8B95A1"/>
</g>
<defs>
<clipPath id="clip0_24089_934">
<rect width="24" height="24" fill="white"/>
</clipPath>
</defs>
</svg>
