<svg width="24" height="24" viewBox="0 0 24 24" fill="none" xmlns="http://www.w3.org/2000/svg">
<path fill-rule="evenodd" clip-rule="evenodd" d="M12 0.612C10.8065 0.612 9.66193 1.08611 8.81802 1.93002C7.97411 2.77393 7.5 3.91853 7.5 5.112V11.315C7.5 12.5085 7.97411 13.6531 8.81802 14.497C9.66193 15.3409 10.8065 15.815 12 15.815C13.1935 15.815 14.3381 15.3409 15.182 14.497C16.0259 13.6531 16.5 12.5085 16.5 11.315V5.112C16.5 3.91853 16.0259 2.77393 15.182 1.93002C14.3381 1.08611 13.1935 0.612 12 0.612Z" fill="#8B95A1"/>
<path fill-rule="evenodd" clip-rule="evenodd" d="M20.601 11.315C20.601 11.0498 20.4956 10.7954 20.3081 10.6079C20.1206 10.4204 19.8662 10.315 19.601 10.315C19.3358 10.315 19.0814 10.4204 18.8939 10.6079C18.7064 10.7954 18.601 11.0498 18.601 11.315C18.5991 13.0651 17.9031 14.743 16.6656 15.9806C15.428 17.2181 13.7501 17.9142 12 17.916C10.2502 17.9139 8.57271 17.2179 7.33543 15.9806C6.09815 14.7433 5.40211 13.0658 5.39999 11.316C5.39999 11.0508 5.29464 10.7964 5.1071 10.6089C4.91956 10.4214 4.66521 10.316 4.39999 10.316C4.13478 10.316 3.88042 10.4214 3.69289 10.6089C3.50535 10.7964 3.39999 11.0508 3.39999 11.316C3.39999 15.719 6.72799 19.356 11 19.853V23C11 23.2652 11.1054 23.5196 11.2929 23.7071C11.4804 23.8946 11.7348 24 12 24C12.2652 24 12.5196 23.8946 12.7071 23.7071C12.8946 23.5196 13 23.2652 13 23V19.853C17.273 19.355 20.601 15.719 20.601 11.315Z" fill="#8B95A1"/>
</svg>
