<svg width="24" height="24" viewBox="0 0 24 24" fill="none" xmlns="http://www.w3.org/2000/svg">
<path fill-rule="evenodd" clip-rule="evenodd" d="M12 2.26001C6.29701 2.26001 1.60801 6.60001 1.05501 12.157C1.04149 12.2966 1.05731 12.4375 1.10145 12.5706C1.1456 12.7038 1.2171 12.8262 1.31136 12.9301C1.40563 13.0339 1.52057 13.117 1.64881 13.1738C1.77704 13.2306 1.91575 13.26 2.05601 13.26H11.257V19.807C11.2491 20.049 11.1474 20.2785 10.9734 20.4469C10.7993 20.6153 10.5667 20.7095 10.3245 20.7095C10.0824 20.7095 9.84968 20.6153 9.67567 20.4469C9.50166 20.2785 9.39994 20.049 9.39201 19.807C9.38049 19.5495 9.2701 19.3064 9.08383 19.1283C8.89755 18.9502 8.64975 18.8507 8.39201 18.8507C8.13427 18.8507 7.88647 18.9502 7.70019 19.1283C7.51392 19.3064 7.40353 19.5495 7.39201 19.807C7.39281 20.5844 7.70197 21.3297 8.25165 21.8794C8.80134 22.4291 9.54664 22.7382 10.324 22.739C11.1015 22.7382 11.8469 22.4291 12.3967 21.8794C12.9466 21.3298 13.256 20.5845 13.257 19.807V13.26H21.944C22.537 13.26 23.004 12.747 22.945 12.157C22.393 6.60001 17.703 2.26001 12 2.26001Z" fill="#8B95A1"/>
</svg>
