<svg width="24" height="24" viewBox="0 0 24 24" fill="none" xmlns="http://www.w3.org/2000/svg">
<path fill-rule="evenodd" clip-rule="evenodd" d="M4.704 20.938C4.49342 21.1487 4.20776 21.2671 3.90985 21.2672C3.61195 21.2673 3.32621 21.1491 3.1155 20.9385C2.90479 20.7279 2.78635 20.4422 2.78626 20.1443C2.78617 19.8464 2.90442 19.5607 3.115 19.35C3.32558 19.1393 3.61125 19.0208 3.90915 19.0207C4.05665 19.0207 4.20272 19.0497 4.33902 19.1061C4.47531 19.1625 4.59916 19.2452 4.7035 19.3495C4.80784 19.4537 4.89061 19.5775 4.9471 19.7138C5.00359 19.8501 5.03269 19.9961 5.03274 20.1436C5.03279 20.2911 5.00378 20.4372 4.94737 20.5735C4.89097 20.7098 4.80827 20.8336 4.704 20.938ZM22.78 5.73298C22.7589 5.64601 22.7151 5.56622 22.653 5.5018C22.5909 5.43738 22.5128 5.39065 22.4266 5.36642C22.3405 5.34219 22.2495 5.34132 22.1629 5.36392C22.0763 5.38651 21.9973 5.43175 21.934 5.49498L19.235 8.19298L16.298 7.64898L15.753 4.71098L18.452 2.01098C18.5147 1.94751 18.5594 1.86858 18.5817 1.78221C18.6039 1.69584 18.6029 1.60512 18.5787 1.51927C18.5545 1.43342 18.5081 1.3555 18.444 1.29345C18.3799 1.23139 18.3006 1.18741 18.214 1.16598C17.1918 0.922812 16.1244 0.945505 15.1134 1.23189C14.1025 1.51828 13.1818 2.05882 12.439 2.80198C11.5531 3.68909 10.9594 4.82564 10.7372 6.05949C10.5151 7.29333 10.6752 8.5656 11.196 9.70598L1.93 18.22C1.66338 18.4739 1.45025 18.7786 1.30315 19.1162C1.15605 19.4537 1.07796 19.8173 1.07345 20.1855C1.06895 20.5536 1.13813 20.919 1.27693 21.26C1.41574 21.6011 1.62135 21.9109 1.88167 22.1713C2.142 22.4317 2.45178 22.6374 2.79278 22.7763C3.13379 22.9152 3.49913 22.9844 3.8673 22.98C4.23548 22.9756 4.59906 22.8976 4.93664 22.7506C5.27422 22.6036 5.57898 22.3905 5.833 22.124L14.386 12.817C15.4336 13.2624 16.5842 13.4084 17.7098 13.2389C18.8354 13.0694 19.8919 12.5909 20.7619 11.8568C21.6318 11.1226 22.281 10.1615 22.6373 9.08039C22.9936 7.99926 23.043 6.8405 22.78 5.73298Z" fill="#8B95A1"/>
</svg>
