<svg width="24" height="24" viewBox="0 0 24 24" fill="none" xmlns="http://www.w3.org/2000/svg">
<path d="M9.74282 22L7.0342 16.9589L2 14.2466L3.94254 12.3288L7.90971 13.0137L10.7004 10.2192L2.02736 6.52055L4.32558 4.16438L14.8591 6.0274L18.2517 2.63014C18.6712 2.21005 19.1911 2 19.8112 2C20.4314 2 20.9512 2.21005 21.3707 2.63014C21.7902 3.05023 22 3.56621 22 4.17808C22 4.78995 21.7902 5.30594 21.3707 5.72603L17.9508 9.15068L19.8112 19.6712L17.4856 22L13.7647 13.3151L10.974 16.1096L11.6854 20.0548L9.74282 22Z" fill="#8B95A1"/>
</svg>
