<svg width="24" height="24" viewBox="0 0 24 24" fill="none" xmlns="http://www.w3.org/2000/svg">
<g clip-path="url(#clip0_24089_949)">
<path fill-rule="evenodd" clip-rule="evenodd" d="M21.316 2.68402C20.1728 1.54344 18.6239 0.902893 17.009 0.902893C15.3941 0.902893 13.8452 1.54344 12.702 2.68402L10.649 4.73602C10.455 4.94482 10.3495 5.2207 10.3548 5.50566C10.36 5.79062 10.4755 6.06244 10.677 6.26397C10.8786 6.4655 11.1504 6.58103 11.4354 6.58626C11.7203 6.5915 11.9962 6.48602 12.205 6.29202L14.258 4.24002C14.9882 3.51151 15.9775 3.10238 17.009 3.10238C18.0405 3.10238 19.0298 3.51151 19.76 4.24002C20.1225 4.60041 20.4099 5.02911 20.6056 5.50133C20.8013 5.97354 20.9013 6.47988 20.9 6.99102C20.9014 7.50218 20.8013 8.00853 20.6056 8.48075C20.41 8.95297 20.1225 9.38167 19.76 9.74202L16.159 13.343C14.69 14.813 12.127 14.813 10.657 13.343C10.4137 13.1005 10.2035 12.8267 10.032 12.529C9.88665 12.276 9.64676 12.0911 9.36508 12.015C9.0834 11.9388 8.78301 11.9777 8.52999 12.123C8.27698 12.2684 8.09206 12.5083 8.01592 12.7899C7.93978 13.0716 7.97865 13.372 8.12399 13.625C8.39099 14.088 8.71899 14.517 9.10099 14.899C9.66538 15.4663 10.3366 15.916 11.0759 16.2222C11.8152 16.5284 12.6078 16.6851 13.408 16.683C14.2082 16.6852 15.0009 16.5286 15.7402 16.2224C16.4795 15.9162 17.1507 15.4664 17.715 14.899L21.316 11.299C21.8835 10.7344 22.3333 10.0628 22.6396 9.32321C22.9458 8.58357 23.1023 7.79054 23.1 6.99002C23.1021 6.18983 22.9456 5.39715 22.6393 4.65786C22.3331 3.91856 21.8833 3.24734 21.316 2.68302" fill="#8B95A1"/>
<path fill-rule="evenodd" clip-rule="evenodd" d="M11.795 17.708L9.742 19.761C9.01155 20.4891 8.0223 20.8979 6.991 20.8979C5.9597 20.8979 4.97045 20.4891 4.24 19.761C3.87773 19.4005 3.59047 18.9718 3.39481 18.4996C3.19914 18.0274 3.09894 17.5212 3.1 17.01C3.1 15.9711 3.505 14.9941 4.24 14.2601L7.841 10.6581C8.26396 10.236 8.77836 9.91688 9.34439 9.72544C9.91043 9.534 10.5129 9.47536 11.1052 9.55405C11.6976 9.63275 12.2638 9.84666 12.7603 10.1793C13.2567 10.5118 13.6699 10.9542 13.968 11.4721C14.04 11.5973 14.1359 11.7072 14.2503 11.7954C14.3648 11.8836 14.4954 11.9484 14.6349 11.9861C14.7744 12.0238 14.9199 12.0337 15.0632 12.0151C15.2065 11.9966 15.3447 11.95 15.47 11.8781C15.5953 11.8061 15.7052 11.7102 15.7934 11.5957C15.8816 11.4813 15.9464 11.3506 15.9841 11.2111C16.0218 11.0717 16.0316 10.9261 16.0131 10.7828C15.9945 10.6396 15.948 10.5013 15.876 10.3761C15.4091 9.56571 14.7621 8.8736 13.985 8.35323C13.2079 7.83285 12.3216 7.49815 11.3945 7.37501C10.4674 7.25186 9.52446 7.34356 8.63848 7.64303C7.7525 7.9425 6.94725 8.4417 6.285 9.10205L2.684 12.7031C2.11675 13.2674 1.66702 13.9387 1.3608 14.6779C1.05459 15.4172 0.897968 16.2099 0.899998 17.01C0.899998 18.637 1.534 20.167 2.684 21.317C3.24903 21.8832 3.92045 22.332 4.65962 22.6377C5.3988 22.9434 6.19112 23.0998 6.991 23.098C8.551 23.098 10.11 22.5041 11.298 21.3181L13.351 19.265C13.545 19.0563 13.6505 18.7804 13.6452 18.4954C13.64 18.2105 13.5245 17.9386 13.3229 17.7371C13.1214 17.5356 12.8496 17.42 12.5646 17.4148C12.2797 17.4096 12.0038 17.5151 11.795 17.709" fill="#8B95A1"/>
</g>
<defs>
<clipPath id="clip0_24089_949">
<rect width="24" height="24" fill="white"/>
</clipPath>
</defs>
</svg>
