<svg width="24" height="24" viewBox="0 0 24 24" fill="none" xmlns="http://www.w3.org/2000/svg">
<path fill-rule="evenodd" clip-rule="evenodd" d="M19.9827 4.61188C19.8717 4.34288 19.6567 4.12888 19.3877 4.01688C19.2537 3.96188 19.1107 3.93188 18.9677 3.93188H10.8967C10.2897 3.93188 9.7967 4.42488 9.7967 5.03288C9.7967 5.63988 10.2897 6.13288 10.8967 6.13288H16.3117L6.1327 16.3119V10.8969C6.1327 10.2889 5.6397 9.79688 5.0327 9.79688C4.4247 9.79688 3.9327 10.2889 3.9327 10.8969V18.9679C3.9327 19.1109 3.9617 19.2539 4.0177 19.3879C4.1287 19.6569 4.3427 19.8709 4.6117 19.9829C4.7467 20.0379 4.8887 20.0679 5.0327 20.0679H13.1037C13.7107 20.0679 14.2037 19.5749 14.2037 18.9679C14.2037 18.3599 13.7107 17.8669 13.1037 17.8669H7.6887L17.8677 7.68788V13.1029C17.8677 13.7109 18.3597 14.2029 18.9677 14.2029C19.5747 14.2029 20.0677 13.7109 20.0677 13.1029V5.03288C20.0677 4.88888 20.0387 4.74688 19.9827 4.61188Z" fill="#8B95A1"/>
</svg>
