<svg width="24" height="24" viewBox="0 0 24 24" fill="none" xmlns="http://www.w3.org/2000/svg">
<path fill-rule="evenodd" clip-rule="evenodd" d="M9.125 17.125C9.60239 17.125 10.0602 17.3147 10.3978 17.6522C10.7354 17.9898 10.925 18.4476 10.925 18.925C10.925 19.4024 10.7354 19.8603 10.3978 20.1978C10.0602 20.5354 9.60239 20.725 9.125 20.725C8.64761 20.725 8.18977 20.5354 7.8522 20.1978C7.51464 19.8603 7.325 19.4024 7.325 18.925C7.325 18.4476 7.51464 17.9898 7.8522 17.6522C8.18977 17.3147 8.64761 17.125 9.125 17.125ZM10.925 12.125C10.925 13.125 10.125 13.925 9.125 13.925C8.125 13.925 7.325 13.125 7.325 12.125C7.325 11.125 8.125 10.325 9.125 10.325C10.125 10.325 10.925 11.125 10.925 12.125ZM10.925 5.32502C10.925 6.32502 10.125 7.12502 9.125 7.12502C8.125 7.12502 7.325 6.32502 7.325 5.32502C7.325 4.32502 8.125 3.52502 9.125 3.52502C10.125 3.52502 10.925 4.32502 10.925 5.32502ZM15.125 17.125C15.6024 17.125 16.0602 17.3147 16.3978 17.6522C16.7354 17.9898 16.925 18.4476 16.925 18.925C16.925 19.4024 16.7354 19.8603 16.3978 20.1978C16.0602 20.5354 15.6024 20.725 15.125 20.725C14.6476 20.725 14.1898 20.5354 13.8522 20.1978C13.5146 19.8603 13.325 19.4024 13.325 18.925C13.325 18.4476 13.5146 17.9898 13.8522 17.6522C14.1898 17.3147 14.6476 17.125 15.125 17.125ZM16.925 12.125C16.925 13.125 16.125 13.925 15.125 13.925C14.125 13.925 13.325 13.125 13.325 12.125C13.325 11.125 14.125 10.325 15.125 10.325C16.125 10.325 16.925 11.125 16.925 12.125ZM16.925 5.32502C16.925 6.32502 16.125 7.12502 15.125 7.12502C14.125 7.12502 13.325 6.32502 13.325 5.32502C13.325 4.32502 14.125 3.52502 15.125 3.52502C16.125 3.52502 16.925 4.32502 16.925 5.32502Z" fill="#8B95A1"/>
</svg>
