<svg width="24" height="24" viewBox="0 0 24 24" fill="none" xmlns="http://www.w3.org/2000/svg">
<g clip-path="url(#clip0_24089_1107)">
<path d="M12 19.3896C12.8925 19.3896 13.7782 19.2688 14.6371 19.0339L18.7169 20.9597C18.7907 20.9933 18.8712 21.0067 18.9484 20.9966C19.0289 20.9866 19.1027 20.9564 19.1665 20.9061C19.2302 20.8557 19.2772 20.792 19.304 20.7148C19.3309 20.641 19.3376 20.5571 19.3208 20.48L18.5726 16.8162C20.1059 15.3467 21.052 13.3705 21.052 11.1931C21.052 10.4147 20.9312 9.66654 20.7064 8.95526L7.74577 18.4334C9.01399 19.044 10.46 19.3896 11.9933 19.3896H12Z" fill="#8C939E"/>
<path d="M12 3C6.99759 3 2.9413 6.6671 2.9413 11.1931C2.9413 12.4378 3.24997 13.6155 3.79684 14.6723L17.4789 4.67083C15.9556 3.62404 14.06 3 12 3Z" fill="#8C939E"/>
<path d="M6.19908 17.4872C6.6755 17.8496 7.19554 18.165 7.74913 18.43L20.7098 8.95192C20.5387 8.40169 20.3038 7.8783 20.0153 7.38174L6.19908 17.4872Z" fill="#8C939E"/>
<path d="M4.72284 16.0747L1.28053 18.591C0.830946 18.9198 0.733649 19.5472 1.06245 19.9968C1.2604 20.2652 1.56571 20.4095 1.87438 20.4095C2.07904 20.4095 2.28705 20.3458 2.46823 20.2149L6.19907 17.4872C5.64884 17.0712 5.15229 16.5948 4.72284 16.0747Z" fill="#8C939E"/>
<path d="M22.7195 5.40895C23.1691 5.08015 23.2664 4.45275 22.9376 4.00317C22.6088 3.55359 21.9814 3.45629 21.5318 3.78509L18.7974 5.78472C19.2705 6.2712 19.6798 6.80801 20.0186 7.38509L22.7195 5.40895Z" fill="#8C939E"/>
<path d="M6.19907 17.4872L20.0186 7.3851C19.6831 6.80803 19.2705 6.27122 18.7974 5.78473L4.72284 16.0748C5.15229 16.5982 5.64884 17.0712 6.19907 17.4872Z" fill="#8C939E"/>
</g>
<defs>
<clipPath id="clip0_24089_1107">
<rect width="22.2643" height="18" fill="white" transform="translate(0.867859 3)"/>
</clipPath>
</defs>
</svg>
