<svg width="24" height="24" viewBox="0 0 24 24" fill="none" xmlns="http://www.w3.org/2000/svg">
<path fill-rule="evenodd" clip-rule="evenodd" d="M19.1 8.29999H17.5V10.7H19.1C19.8 10.7 20.3 11.2 20.3 11.9V19.1C20.3 19.8 19.8 20.3 19.1 20.3H11.9C11.2 20.3 10.7 19.8 10.7 19.1V17.7H8.29999V19.1C8.29999 21.1 9.89999 22.7 11.9 22.7H19.1C21.1 22.7 22.7 21.1 22.7 19.1V11.9C22.7 9.89999 21.1 8.29999 19.1 8.29999Z" fill="#8B95A1"/>
<path fill-rule="evenodd" clip-rule="evenodd" d="M4.89999 3.69999C4.19999 3.69999 3.69999 4.19999 3.69999 4.89999V12.1C3.69999 12.8 4.19999 13.3 4.89999 13.3H12.1C12.8 13.3 13.3 12.8 13.3 12.1V4.89999C13.3 4.19999 12.8 3.69999 12.1 3.69999H4.89999ZM12.1 15.7H4.89999C2.89999 15.7 1.29999 14.1 1.29999 12.1V4.89999C1.29999 2.89999 2.89999 1.29999 4.89999 1.29999H12.1C14.1 1.29999 15.7 2.89999 15.7 4.89999V12.1C15.7 14.1 14.1 15.7 12.1 15.7Z" fill="#8B95A1"/>
</svg>
