<svg width="24" height="24" viewBox="0 0 24 24" fill="none" xmlns="http://www.w3.org/2000/svg">
<path fill-rule="evenodd" clip-rule="evenodd" d="M12.9 14.075V16.274C12.9 16.5127 12.8052 16.7416 12.6364 16.9104C12.4676 17.0792 12.2387 17.174 12 17.174C11.7613 17.174 11.5324 17.0792 11.3636 16.9104C11.1948 16.7416 11.1 16.5127 11.1 16.274V14.075C10.827 13.9182 10.6002 13.6924 10.4422 13.4201C10.2842 13.1478 10.2007 12.8388 10.2 12.524C10.2111 12.0541 10.4055 11.6072 10.7418 11.2787C11.0781 10.9503 11.5295 10.7664 11.9995 10.7664C12.4695 10.7664 12.9209 10.9503 13.2572 11.2787C13.5935 11.6072 13.7879 12.0541 13.799 12.524C13.799 13.189 13.435 13.763 12.9 14.075ZM8.82 6.49901C8.82106 5.65604 9.15647 4.84791 9.75263 4.25193C10.3488 3.65595 11.157 3.3208 12 3.32001C12.8429 3.3208 13.651 3.65599 14.247 4.25199C14.843 4.848 15.1782 5.65613 15.179 6.49901H8.82ZM18.599 6.49901H17.179C17.1777 5.12586 16.6316 3.80933 15.6606 2.83836C14.6897 1.8674 13.3731 1.32133 12 1.32001C10.6268 1.32133 9.31012 1.86737 8.339 2.8383C7.36788 3.80924 6.82159 5.12577 6.82 6.49901H5.4C4.76348 6.49901 4.15303 6.75186 3.70294 7.20195C3.25286 7.65204 3 8.26249 3 8.89901V19.099C3 19.7355 3.25286 20.346 3.70294 20.7961C4.15303 21.2462 4.76348 21.499 5.4 21.499H18.599C18.9143 21.4991 19.2265 21.4372 19.5177 21.3166C19.809 21.1961 20.0737 21.0193 20.2967 20.7964C20.5197 20.5735 20.6965 20.3089 20.8172 20.0177C20.9379 19.7264 21 19.4143 21 19.099V8.89901C21 8.58375 20.9379 8.27158 20.8172 7.98034C20.6965 7.68909 20.5197 7.42447 20.2967 7.2016C20.0737 6.97872 19.809 6.80196 19.5177 6.68141C19.2265 6.56086 18.9143 6.49888 18.599 6.49901Z" fill="#8B95A1"/>
</svg>
