<svg width="24" height="24" viewBox="0 0 24 24" fill="none" xmlns="http://www.w3.org/2000/svg">
<g clip-path="url(#clip0_24089_848)">
<path fill-rule="evenodd" clip-rule="evenodd" d="M7.36048 18.8282L17.2854 8.90322L17.2854 16.6121C17.2841 16.7705 17.3142 16.9276 17.374 17.0743C17.4337 17.221 17.5219 17.3545 17.6334 17.4669C17.745 17.5794 17.8777 17.6687 18.0239 17.7296C18.1701 17.7905 18.327 17.8219 18.4854 17.8219C18.6438 17.8219 18.8006 17.7905 18.9469 17.7296C19.0931 17.6687 19.2258 17.5794 19.3374 17.4669C19.4489 17.3545 19.5371 17.221 19.5968 17.0743C19.6566 16.9276 19.6866 16.7705 19.6854 16.6121L19.6854 6.0055C19.6861 6.00196 19.6839 5.99843 19.6839 5.99418C19.6816 5.75914 19.6102 5.52996 19.4787 5.33512C19.3472 5.14027 19.1614 4.98834 18.9443 4.89817C18.8008 4.83948 18.6509 4.80978 18.4974 4.80766L18.4854 4.80554H7.87879C7.54716 4.80625 7.24805 4.9413 7.03168 5.15768C6.86391 5.32546 6.74965 5.53921 6.70333 5.77192C6.65701 6.00462 6.68072 6.24583 6.77146 6.46507C6.86219 6.6843 7.01588 6.87172 7.21311 7.00363C7.41033 7.13554 7.64223 7.20602 7.8795 7.20617L15.5877 7.20687L5.66272 17.1318C5.43768 17.3569 5.31125 17.6621 5.31125 17.9804C5.31125 18.2986 5.43768 18.6038 5.66272 18.8289C5.88776 19.0539 6.19299 19.1804 6.51125 19.1804C6.82951 19.1804 7.13473 19.0539 7.35978 18.8289" fill="#8B95A1"/>
</g>
<defs>
<clipPath id="clip0_24089_848">
<rect width="24" height="24" fill="white"/>
</clipPath>
</defs>
</svg>
