<svg width="24" height="24" viewBox="0 0 24 24" fill="none" xmlns="http://www.w3.org/2000/svg">
<path fill-rule="evenodd" clip-rule="evenodd" d="M22.34 16.913L18.361 13.833C18.1688 13.6847 17.9292 13.6115 17.687 13.6272C17.4447 13.6428 17.2165 13.7462 17.045 13.918L14.933 16.031C14.7757 16.1899 14.5694 16.2911 14.3474 16.3181C14.1254 16.3451 13.9009 16.2965 13.71 16.18C13.03 15.763 11.892 14.955 10.468 13.53C9.044 12.107 8.236 10.968 7.819 10.289C7.70237 10.0983 7.65371 9.87372 7.68094 9.65184C7.70818 9.42996 7.8097 9.22382 7.969 9.06699L10.081 6.95399C10.253 6.78258 10.3565 6.55423 10.372 6.31188C10.3874 6.06953 10.3138 5.82988 10.165 5.63799L7.086 1.65799C6.386 0.754989 5.066 0.611989 4.206 1.36699C3.073 2.36099 1.712 3.84999 1.316 5.52099C0.599001 8.53099 1.732 12.308 6.712 17.288C11.692 22.267 15.469 23.401 18.478 22.685C20.149 22.287 21.639 20.925 22.633 19.793C23.387 18.933 23.244 17.613 22.34 16.913Z" fill="#8B95A1"/>
</svg>
