<svg width="24" height="24" viewBox="0 0 24 24" fill="none" xmlns="http://www.w3.org/2000/svg">
<path fill-rule="evenodd" clip-rule="evenodd" d="M20.967 12.362C20.6535 12.3074 20.3312 12.3796 20.0709 12.5626C19.8106 12.7456 19.6337 13.0246 19.579 13.338C19.2677 15.1268 18.3341 16.748 16.9432 17.915C15.5523 19.0821 13.7937 19.72 11.978 19.716C7.72401 19.716 4.26301 16.255 4.26301 12C4.26301 7.74602 7.72401 4.28502 11.978 4.28502C13.912 4.28502 15.731 4.99902 17.153 6.28902L16.161 7.28102C16.0312 7.4103 15.9399 7.57306 15.8971 7.75117C15.8543 7.92929 15.8618 8.11579 15.9187 8.28991C15.9756 8.46404 16.0797 8.61896 16.2194 8.73744C16.3591 8.85592 16.5289 8.93332 16.71 8.96102L20.922 9.61102C21.0759 9.63474 21.2332 9.62183 21.3811 9.57335C21.5291 9.52487 21.6635 9.44218 21.7735 9.33199C21.8835 9.2218 21.9659 9.08723 22.0142 8.9392C22.0624 8.79117 22.075 8.63385 22.051 8.48002L21.402 4.26902C21.3741 4.08806 21.2966 3.91837 21.1782 3.77876C21.0597 3.63915 20.9049 3.5351 20.7309 3.47813C20.5569 3.42116 20.3705 3.41352 20.1924 3.45604C20.0143 3.49856 19.8515 3.58959 19.722 3.71902L18.85 4.59202C16.9863 2.84963 14.5293 1.8818 11.978 1.88502C6.40101 1.88502 1.86301 6.42302 1.86301 12C1.86301 17.578 6.40101 22.115 11.978 22.115C16.906 22.115 21.096 18.597 21.943 13.75C21.9976 13.4365 21.9254 13.1142 21.7424 12.8539C21.5594 12.5936 21.2805 12.4167 20.967 12.362Z" fill="#8B95A1"/>
</svg>
