<svg width="24" height="24" viewBox="0 0 24 24" fill="none" xmlns="http://www.w3.org/2000/svg">
<path d="M20.71 3.99997C20.71 3.38997 20.22 2.90997 19.61 2.90997H19.6C18.99 2.90997 18.5 3.40997 18.51 4.01997L18.55 12.6C18.55 13 18.4 13.38 18.11 13.66C17.83 13.94 17.45 14.1 17.05 14.1H5.99L9.92 10.17C10.35 9.73997 10.35 9.03997 9.92 8.60997C9.49 8.17997 8.8 8.17997 8.36 8.60997L2.55 14.42C2.34 14.63 2.23 14.91 2.23 15.2C2.23 15.49 2.35 15.77 2.55 15.98L8.36 21.79C8.57 22 8.86 22.11 9.14 22.11C9.42 22.11 9.7 22 9.92 21.79C10.35 21.36 10.35 20.66 9.92 20.24L5.99 16.31H17.06C18.05 16.31 18.98 15.92 19.68 15.22C20.38 14.52 20.76 13.59 20.76 12.6L20.71 3.99997Z" fill="#8B95A1"/>
</svg>
