<svg width="24" height="24" viewBox="0 0 24 24" fill="none" xmlns="http://www.w3.org/2000/svg">
<path fill-rule="evenodd" clip-rule="evenodd" d="M7.099 14.401H8.899V12.601H7.099V14.401ZM7.099 10.65H8.899V8.85H7.099V10.65ZM7.099 6.9H8.899V5.1H7.099V6.9ZM11.1 14.401H12.9V12.601H11.1V14.401ZM11.1 10.65H12.9V8.85H11.1V10.65ZM11.1 6.9H12.9V5.1H11.1V6.9ZM15.102 14.401H16.902V12.601H15.102V14.401ZM15.102 10.65H16.902V8.85H15.102V10.65ZM15.102 6.9H16.902V5.1H15.102V6.9ZM19.503 1.5H4.497C4.3656 1.49987 4.23545 1.52564 4.11401 1.57583C3.99257 1.62603 3.88221 1.69967 3.78925 1.79254C3.69628 1.88541 3.62254 1.9957 3.57222 2.11709C3.5219 2.23848 3.496 2.36859 3.496 2.5V21.388C3.496 21.7063 3.62243 22.0115 3.84747 22.2365C4.07252 22.4616 4.37774 22.588 4.696 22.588H10V18.835C10 18.5698 10.1054 18.3154 10.2929 18.1279C10.4804 17.9404 10.7348 17.835 11 17.835H13C13.2652 17.835 13.5196 17.9404 13.7071 18.1279C13.8946 18.3154 14 18.5698 14 18.835V22.588H19.303C19.6213 22.588 19.9265 22.4616 20.1515 22.2365C20.3766 22.0115 20.503 21.7063 20.503 21.388V2.5C20.503 2.23478 20.3976 1.98043 20.2101 1.79289C20.0226 1.60536 19.7682 1.5 19.503 1.5Z" fill="#8B95A1"/>
</svg>
