<svg width="24" height="24" viewBox="0 0 24 24" fill="none" xmlns="http://www.w3.org/2000/svg">
<path fill-rule="evenodd" clip-rule="evenodd" d="M10.061 3.18103C9.66599 2.78624 9.13047 2.56433 8.572 2.56403H4.106C3.54745 2.56403 3.01178 2.78591 2.61683 3.18086C2.22188 3.57581 2 4.11148 2 4.67003V5.64703H12.527L10.061 3.18103ZM19.895 6.64703H2V19.331C2 20.494 2.943 21.436 4.106 21.436H19.895C20.1715 21.4362 20.4453 21.3818 20.7007 21.2761C20.9562 21.1703 21.1883 21.0153 21.3838 20.8198C21.5792 20.6243 21.7343 20.3922 21.84 20.1367C21.9458 19.8813 22.0001 19.6075 22 19.331V8.75203C22.0001 8.47556 21.9458 8.20177 21.84 7.94632C21.7343 7.69087 21.5792 7.45877 21.3838 7.26327C21.1883 7.06778 20.9562 6.91273 20.7007 6.80699C20.4453 6.70125 20.1715 6.64689 19.895 6.64703Z" fill="#8B95A1"/>
</svg>
