<svg width="24" height="24" viewBox="0 0 24 24" fill="none" xmlns="http://www.w3.org/2000/svg">
<path fill-rule="evenodd" clip-rule="evenodd" d="M5.62701 22.087C5.64877 22.3362 5.76311 22.5681 5.94749 22.7372C6.13187 22.9062 6.37289 22.9999 6.62301 23H17.586C17.8361 22.9999 18.0771 22.9062 18.2615 22.7372C18.4459 22.5681 18.5602 22.3362 18.582 22.087L18.834 19.193L19.551 10.969L19.667 9.631H4.54201L5.62701 22.087ZM20.804 4.53H19.207L18.118 1.666C18.0434 1.47019 17.9111 1.30165 17.7386 1.18271C17.5661 1.06378 17.3615 1.00006 17.152 1H7.05801C6.62801 1 6.24401 1.265 6.09101 1.666L5.00201 4.53H3.19701C3.0644 4.53 2.93722 4.58268 2.84345 4.67645C2.74968 4.77021 2.69701 4.89739 2.69701 5.03V7.131C2.69701 7.26361 2.74968 7.39079 2.84345 7.48455C2.93722 7.57832 3.0644 7.631 3.19701 7.631H20.804C20.9366 7.631 21.0638 7.57832 21.1576 7.48455C21.2513 7.39079 21.304 7.26361 21.304 7.131V5.03C21.304 4.89739 21.2513 4.77021 21.1576 4.67645C21.0638 4.58268 20.9366 4.53 20.804 4.53Z" fill="#8B95A1"/>
</svg>
