<svg width="24" height="24" viewBox="0 0 24 24" fill="none" xmlns="http://www.w3.org/2000/svg">
<path fill-rule="evenodd" clip-rule="evenodd" d="M15.375 20.1C15.1977 20.1001 15.0222 20.0651 14.8585 19.9972C14.6948 19.9292 14.5461 19.8296 14.421 19.704L7.671 12.954C7.54559 12.8286 7.44611 12.6798 7.37824 12.516C7.31037 12.3521 7.27544 12.1765 7.27544 11.9992C7.27544 11.8219 7.31037 11.6463 7.37824 11.4825C7.44611 11.3187 7.54559 11.1698 7.671 11.0445L14.421 4.29448C14.5454 4.16475 14.6944 4.06117 14.8593 3.9898C15.0243 3.91843 15.2018 3.88071 15.3815 3.87886C15.5612 3.877 15.7395 3.91105 15.9059 3.979C16.0723 4.04695 16.2234 4.14744 16.3504 4.27457C16.4775 4.4017 16.5778 4.55291 16.6456 4.71934C16.7135 4.88577 16.7474 5.06407 16.7454 5.24378C16.7434 5.42348 16.7055 5.60098 16.634 5.76587C16.5625 5.93075 16.4588 6.0797 16.329 6.20398L10.5345 12L16.329 17.7945C16.5181 17.9832 16.6469 18.2238 16.6992 18.4857C16.7515 18.7477 16.7249 19.0193 16.6227 19.2662C16.5206 19.513 16.3475 19.724 16.1254 19.8724C15.9033 20.0208 15.6421 20.1 15.375 20.1Z" fill="#8B95A1"/>
</svg>
