<svg width="24" height="24" viewBox="0 0 24 24" fill="none" xmlns="http://www.w3.org/2000/svg">
<path fill-rule="evenodd" clip-rule="evenodd" d="M12 19.191C11.8424 19.191 11.6864 19.16 11.5408 19.0997C11.3952 19.0394 11.2629 18.951 11.1515 18.8395C11.04 18.7281 10.9516 18.5958 10.8913 18.4502C10.831 18.3046 10.8 18.1486 10.8 17.991C10.8 17.8334 10.831 17.6774 10.8913 17.5318C10.9516 17.3862 11.04 17.2539 11.1515 17.1425C11.2629 17.0311 11.3952 16.9427 11.5408 16.8824C11.6864 16.8221 11.8424 16.791 12 16.791C12.3183 16.791 12.6235 16.9174 12.8485 17.1425C13.0736 17.3675 13.2 17.6728 13.2 17.991C13.2 18.3093 13.0736 18.6145 12.8485 18.8395C12.6235 19.0646 12.3183 19.191 12 19.191ZM11 9.20801C11 8.9428 11.1054 8.68844 11.2929 8.50091C11.4804 8.31337 11.7348 8.20801 12 8.20801C12.2652 8.20801 12.5196 8.31337 12.7071 8.50091C12.8946 8.68844 13 8.9428 13 9.20801V14.208C13 14.4732 12.8946 14.7276 12.7071 14.9151C12.5196 15.1027 12.2652 15.208 12 15.208C11.7348 15.208 11.4804 15.1027 11.2929 14.9151C11.1054 14.7276 11 14.4732 11 14.208V9.20801ZM22.914 18.815L14.079 3.51201C13.155 1.91201 10.845 1.91201 9.921 3.51201L1.086 18.815C0.162998 20.415 1.316 22.415 3.165 22.415H20.835C22.683 22.415 23.837 20.415 22.914 18.815Z" fill="#8B95A1"/>
</svg>
