<svg width="24" height="24" viewBox="0 0 24 24" fill="none" xmlns="http://www.w3.org/2000/svg">
<path fill-rule="evenodd" clip-rule="evenodd" d="M10.904 21.527C11.57 21.967 12.429 21.967 13.094 21.527C15.209 20.131 19.814 16.794 21.798 13.06C24.413 8.13401 21.342 3.22101 17.282 3.22101C14.968 3.22101 13.576 4.43001 12.806 5.46901C12.7135 5.59626 12.5922 5.69982 12.4521 5.77123C12.3119 5.84264 12.1568 5.87986 11.9995 5.87986C11.8422 5.87986 11.6871 5.84264 11.5469 5.77123C11.4068 5.69982 11.2855 5.59626 11.193 5.46901C10.423 4.43001 9.031 3.22101 6.717 3.22101C2.657 3.22101 -0.414 8.13401 2.202 13.06C4.184 16.794 8.791 20.131 10.904 21.527Z" fill="#8B95A1"/>
</svg>
