<svg width="24" height="24" viewBox="0 0 24 24" fill="none" xmlns="http://www.w3.org/2000/svg">
<path fill-rule="evenodd" clip-rule="evenodd" d="M21.85 16.517L16.463 6.035L16.463 2.921C16.463 2.351 16 1.888 15.43 1.888L8.57001 1.888C8.00001 1.888 7.53701 2.351 7.53701 2.921L7.53701 6.035L2.15001 16.517C2.07166 16.6695 2.03383 16.8395 2.04015 17.0109C2.04647 17.1822 2.09672 17.349 2.18609 17.4953C2.27545 17.6416 2.40093 17.7624 2.55046 17.8463C2.7 17.9301 2.86858 17.9741 3.04001 17.974L20.96 17.974C21.1314 17.9741 21.3 17.9301 21.4495 17.8463C21.5991 17.7624 21.7246 17.6416 21.8139 17.4953C21.9033 17.349 21.9535 17.1822 21.9599 17.0109C21.9662 16.8395 21.9284 16.6695 21.85 16.517ZM14.833 21.236L14.833 19.28L9.16701 19.28L9.16701 21.235C9.16701 21.959 9.75401 22.545 10.478 22.545L13.521 22.545C14.246 22.545 14.833 21.96 14.833 21.236Z" fill="#8B95A1"/>
<circle cx="12" cy="2" r="2" fill="#8B95A1"/>
</svg>
