<svg width="24" height="24" viewBox="0 0 24 24" fill="none" xmlns="http://www.w3.org/2000/svg">
<path fill-rule="evenodd" clip-rule="evenodd" d="M9.435 4.482C9.43579 3.80197 9.70629 3.15001 10.1871 2.66915C10.668 2.18829 11.32 1.9178 12 1.917C12.6801 1.9178 13.3322 2.18826 13.8132 2.66909C14.2942 3.14992 14.5649 3.80188 14.566 4.482H9.436H9.435ZM21.466 18.024L19.506 5.33C19.4697 5.09397 19.3501 4.87872 19.1689 4.72318C18.9877 4.56765 18.7568 4.4821 18.518 4.482H16.366C16.3647 3.32457 15.9042 2.21493 15.0857 1.39659C14.2672 0.578254 13.1574 0.118063 12 0.117004C10.8427 0.118328 9.73325 0.578635 8.91494 1.39694C8.09663 2.21525 7.63632 3.32474 7.635 4.482H5.483C5.24419 4.4821 5.0133 4.56765 4.83208 4.72318C4.65087 4.87872 4.5313 5.09397 4.495 5.33L2.535 18.024C2.46877 18.4517 2.49587 18.8886 2.61445 19.3048C2.73304 19.721 2.94029 20.1066 3.22198 20.4351C3.50367 20.7636 3.85313 21.0273 4.24635 21.208C4.63957 21.3887 5.06724 21.4822 5.5 21.482H18.502C18.9347 21.482 19.3623 21.3884 19.7554 21.2077C20.1486 21.0269 20.498 20.7632 20.7796 20.4348C21.0613 20.1063 21.2685 19.7207 21.3872 19.3046C21.5058 18.8885 21.5331 18.4516 21.467 18.024H21.466Z" fill="#8B95A1"/>
</svg>
