<svg width="24" height="24" viewBox="0 0 24 24" fill="none" xmlns="http://www.w3.org/2000/svg">
<path fill-rule="evenodd" clip-rule="evenodd" d="M22.36 20.84L18.923 16.03C18.6391 15.6358 18.2274 15.3521 17.758 15.227L17.704 15.292C16.809 16.352 15.671 17.542 14.121 19.04C13.5525 19.59 12.792 19.8967 12.001 19.895C11.2104 19.8972 10.4501 19.5908 9.882 19.041C8.3 17.511 7.144 16.298 6.242 15.224C5.76837 15.347 5.35269 15.6317 5.067 16.029L1.63 20.84C1.51792 20.997 1.45127 21.1819 1.43736 21.3743C1.42346 21.5667 1.46284 21.7593 1.55117 21.9308C1.63951 22.1023 1.7734 22.2462 1.93813 22.3466C2.10286 22.447 2.29207 22.5001 2.485 22.5H21.505C22.359 22.5 22.855 21.535 22.359 20.84" fill="#8B95A1"/>
<path fill-rule="evenodd" clip-rule="evenodd" d="M12 6.30201C12.2663 6.29592 12.5312 6.34311 12.7791 6.44079C13.0269 6.53848 13.2528 6.68469 13.4433 6.87086C13.6339 7.05702 13.7853 7.27938 13.8888 7.52489C13.9922 7.77039 14.0456 8.03408 14.0457 8.30049C14.0459 8.56689 13.9928 8.83064 13.8896 9.07625C13.7864 9.32185 13.6351 9.54437 13.4448 9.73072C13.2544 9.91708 13.0287 10.0635 12.7809 10.1615C12.5332 10.2594 12.2684 10.3068 12.002 10.301C11.4716 10.3011 10.9628 10.0906 10.5877 9.71558C10.2125 9.3406 10.0016 8.83194 10.0015 8.30151C10.0014 7.77108 10.212 7.26232 10.5869 6.88715C10.9619 6.51198 11.4706 6.30114 12.001 6.30101M11.273 17.603C11.4693 17.7908 11.7306 17.8955 12.0022 17.8953C12.2739 17.8951 12.5349 17.79 12.731 17.602C17.349 13.14 18.803 10.902 18.803 8.30201C18.803 3.89801 14.616 0.471012 10.006 1.78401C7.09601 2.61401 5.20001 5.27601 5.20001 8.30201C5.20001 10.904 6.65501 13.141 11.273 17.602" fill="#8B95A1"/>
</svg>
