<svg width="24" height="24" viewBox="0 0 24 24" fill="none" xmlns="http://www.w3.org/2000/svg">
<path fill-rule="evenodd" clip-rule="evenodd" d="M5.325 7.32501C5.80239 7.32501 6.26023 7.51465 6.59779 7.85222C6.93536 8.18979 7.125 8.64762 7.125 9.12501C7.125 9.6024 6.93536 10.0602 6.59779 10.3978C6.26023 10.7354 5.80239 10.925 5.325 10.925C4.84761 10.925 4.38977 10.7354 4.05221 10.3978C3.71464 10.0602 3.525 9.6024 3.525 9.12501C3.525 8.64762 3.71464 8.18979 4.05221 7.85222C4.38977 7.51465 4.84761 7.32501 5.325 7.32501ZM12.125 10.925C11.125 10.925 10.325 10.125 10.325 9.12501C10.325 8.12501 11.125 7.32501 12.125 7.32501C13.125 7.32501 13.925 8.12501 13.925 9.12501C13.925 10.125 13.125 10.925 12.125 10.925ZM18.925 10.925C17.925 10.925 17.125 10.125 17.125 9.12501C17.125 8.12501 17.925 7.32501 18.925 7.32501C19.925 7.32501 20.725 8.12501 20.725 9.12501C20.725 10.125 19.925 10.925 18.925 10.925ZM5.325 13.325C5.80239 13.325 6.26023 13.5147 6.59779 13.8522C6.93536 14.1898 7.125 14.6476 7.125 15.125C7.125 15.6024 6.93536 16.0602 6.59779 16.3978C6.26023 16.7354 5.80239 16.925 5.325 16.925C4.84761 16.925 4.38977 16.7354 4.05221 16.3978C3.71464 16.0602 3.525 15.6024 3.525 15.125C3.525 14.6476 3.71464 14.1898 4.05221 13.8522C4.38977 13.5147 4.84761 13.325 5.325 13.325ZM12.125 16.925C11.125 16.925 10.325 16.125 10.325 15.125C10.325 14.125 11.125 13.325 12.125 13.325C13.125 13.325 13.925 14.125 13.925 15.125C13.925 16.125 13.125 16.925 12.125 16.925ZM18.925 16.925C17.925 16.925 17.125 16.125 17.125 15.125C17.125 14.125 17.925 13.325 18.925 13.325C19.925 13.325 20.725 14.125 20.725 15.125C20.725 16.125 19.925 16.925 18.925 16.925Z" fill="#8B95A1"/>
</svg>
