<svg width="24" height="24" viewBox="0 0 24 24" fill="none" xmlns="http://www.w3.org/2000/svg">
<g clip-path="url(#clip0_24089_1020)">
<path fill-rule="evenodd" clip-rule="evenodd" d="M8.46002 11.231C8.23363 10.9261 8.02011 10.6118 7.82002 10.289C7.70348 10.0981 7.65488 9.87341 7.68211 9.65141C7.70934 9.4294 7.8108 9.22311 7.97002 9.06602L10.082 6.95402C10.2541 6.78245 10.3576 6.55393 10.3731 6.31141C10.3886 6.06888 10.3149 5.82906 10.166 5.63702L7.08602 1.66002C6.38602 0.755018 5.06502 0.613018 4.20602 1.36702C3.07402 2.36102 1.71302 3.85102 1.31502 5.52202C0.712015 8.06002 1.43302 11.146 4.65502 15.036L8.46102 11.232L8.46002 11.231ZM22.34 16.913L18.362 13.833C18.1698 13.6847 17.9302 13.6115 17.688 13.6272C17.4457 13.6428 17.2175 13.7462 17.046 13.918L14.934 16.031C14.7767 16.1899 14.5704 16.2911 14.3484 16.3181C14.1265 16.3452 13.9019 16.2965 13.711 16.18C13.177 15.852 12.357 15.278 11.34 14.358L20.849 4.84802C21.071 4.62236 21.1949 4.31811 21.1936 4.00154C21.1923 3.68498 21.066 3.38175 20.8421 3.1579C20.6183 2.93405 20.3151 2.80773 19.9985 2.80644C19.6819 2.80515 19.3777 2.929 19.152 3.15102L1.15202 21.151C0.926846 21.3761 0.800295 21.6813 0.800201 21.9997C0.800108 22.318 0.926479 22.6234 1.15152 22.8485C1.37655 23.0737 1.68182 23.2002 2.00016 23.2003C2.3185 23.2004 2.62385 23.0741 2.84902 22.849L7.57502 18.122C12.132 22.392 15.645 23.359 18.479 22.685C20.149 22.287 21.639 20.925 22.634 19.793C23.388 18.933 23.244 17.613 22.341 16.913" fill="#8B95A1"/>
</g>
<defs>
<clipPath id="clip0_24089_1020">
<rect width="24" height="24" fill="white"/>
</clipPath>
</defs>
</svg>
