<svg width="24" height="24" viewBox="0 0 24 24" fill="none" xmlns="http://www.w3.org/2000/svg">
<path fill-rule="evenodd" clip-rule="evenodd" d="M12 1.40002C11.7083 1.40002 11.4285 1.51592 11.2222 1.72221C11.0159 1.9285 10.9 2.20829 10.9 2.50002V5.54202C10.9 5.83376 11.0159 6.11355 11.2222 6.31984C11.4285 6.52613 11.7083 6.64202 12 6.64202C12.2917 6.64202 12.5715 6.52613 12.7778 6.31984C12.9841 6.11355 13.1 5.83376 13.1 5.54202V2.50002C13.1 2.35557 13.0715 2.21253 13.0163 2.07907C12.961 1.94561 12.88 1.82435 12.7778 1.72221C12.6757 1.62006 12.5544 1.53904 12.421 1.48376C12.2875 1.42848 12.1445 1.40002 12 1.40002Z" fill="#8B95A1"/>
<path fill-rule="evenodd" clip-rule="evenodd" d="M6.656 8.21101C6.75795 8.31357 6.87917 8.39496 7.01269 8.45049C7.14621 8.50603 7.28939 8.53462 7.434 8.53462C7.57861 8.53462 7.72179 8.50603 7.85531 8.45049C7.98883 8.39496 8.11005 8.31357 8.212 8.21101C8.41816 8.00457 8.53395 7.72475 8.53395 7.43301C8.53395 7.14126 8.41816 6.86144 8.212 6.65501L6.06 4.50501C5.85046 4.31594 5.57632 4.21456 5.29419 4.2218C5.01205 4.22904 4.74347 4.34435 4.5439 4.54391C4.34434 4.74348 4.22903 5.01206 4.22179 5.29419C4.21455 5.57633 4.31593 5.85047 4.505 6.06001L6.655 8.21101H6.656Z" fill="#8B95A1" fill-opacity="0.16"/>
<path fill-rule="evenodd" clip-rule="evenodd" d="M6.642 12C6.642 11.7083 6.52611 11.4285 6.31982 11.2222C6.11353 11.0159 5.83374 10.9 5.542 10.9H2.5C2.20826 10.9 1.92847 11.0159 1.72218 11.2222C1.51589 11.4285 1.4 11.7083 1.4 12C1.4 12.2918 1.51589 12.5716 1.72218 12.7778C1.92847 12.9841 2.20826 13.1 2.5 13.1H5.542C5.83374 13.1 6.11353 12.9841 6.31982 12.7778C6.52611 12.5716 6.642 12.2918 6.642 12Z" fill="#8B95A1" fill-opacity="0.32"/>
<path fill-rule="evenodd" clip-rule="evenodd" d="M6.656 15.789L4.505 17.939C4.40283 18.0412 4.32178 18.1625 4.26649 18.296C4.2112 18.4295 4.18274 18.5725 4.18274 18.717C4.18274 18.8615 4.2112 19.0046 4.26649 19.1381C4.32178 19.2716 4.40283 19.3929 4.505 19.495C4.71134 19.7014 4.99119 19.8173 5.283 19.8173C5.42749 19.8173 5.57056 19.7888 5.70405 19.7335C5.83754 19.6782 5.95883 19.5972 6.061 19.495L8.211 17.345C8.40239 17.1359 8.50573 16.861 8.4995 16.5775C8.49327 16.2941 8.37795 16.024 8.17754 15.8235C7.97714 15.6229 7.70711 15.5074 7.42368 15.501C7.14025 15.4946 6.86527 15.5978 6.656 15.789Z" fill="#8B95A1" fill-opacity="0.56"/>
<path fill-rule="evenodd" clip-rule="evenodd" d="M12 17.358C11.7083 17.358 11.4285 17.4739 11.2222 17.6802C11.0159 17.8865 10.9 18.1663 10.9 18.458V21.5C10.9 21.7918 11.0159 22.0716 11.2222 22.2778C11.4285 22.4841 11.7083 22.6 12 22.6C12.2917 22.6 12.5715 22.4841 12.7778 22.2778C12.9841 22.0716 13.1 21.7918 13.1 21.5V18.458C13.1 18.1663 12.9841 17.8865 12.7778 17.6802C12.5715 17.4739 12.2917 17.358 12 17.358Z" fill="#8B95A1" fill-opacity="0.56"/>
<path fill-rule="evenodd" clip-rule="evenodd" d="M17.344 15.7891C17.2418 15.6869 17.1205 15.6058 16.9871 15.5505C16.8536 15.4953 16.7105 15.4668 16.566 15.4668C16.4215 15.4668 16.2784 15.4953 16.145 15.5505C16.0115 15.6058 15.8902 15.6869 15.788 15.7891C15.6858 15.8912 15.6048 16.0125 15.5495 16.146C15.4942 16.2795 15.4657 16.4226 15.4657 16.5671C15.4657 16.7115 15.4942 16.8546 15.5495 16.9881C15.6048 17.1216 15.6858 17.2429 15.788 17.3451L17.939 19.4951C18.041 19.5975 18.1623 19.6788 18.2958 19.7342C18.4293 19.7897 18.5724 19.8183 18.717 19.8183C18.8616 19.8183 19.0047 19.7897 19.1382 19.7342C19.2717 19.6788 19.393 19.5975 19.495 19.4951C19.5972 19.3929 19.6783 19.2716 19.7336 19.1381C19.7889 19.0046 19.8174 18.8616 19.8174 18.7171C19.8174 18.5726 19.7889 18.4295 19.7336 18.296C19.6783 18.1625 19.5972 18.0412 19.495 17.9391L17.345 15.7891H17.344Z" fill="#8B95A1" fill-opacity="0.72"/>
<path fill-rule="evenodd" clip-rule="evenodd" d="M21.5 10.9H18.458C18.1663 10.9 17.8865 11.0159 17.6802 11.2222C17.4739 11.4285 17.358 11.7083 17.358 12C17.358 12.2918 17.4739 12.5716 17.6802 12.7778C17.8865 12.9841 18.1663 13.1 18.458 13.1H21.5C21.7917 13.1 22.0715 12.9841 22.2778 12.7778C22.4841 12.5716 22.6 12.2918 22.6 12C22.6 11.7083 22.4841 11.4285 22.2778 11.2222C22.0715 11.0159 21.7917 10.9 21.5 10.9Z" fill="#8B95A1" fill-opacity="0.72"/>
<path fill-rule="evenodd" clip-rule="evenodd" d="M16.566 8.534C16.847 8.534 17.129 8.427 17.344 8.212L19.495 6.061C19.689 5.85221 19.7945 5.57632 19.7892 5.29136C19.784 5.0064 19.6685 4.73458 19.467 4.53305C19.2654 4.33152 18.9936 4.21599 18.7086 4.21076C18.4237 4.20553 18.1478 4.311 17.939 4.505L15.789 6.655C15.6353 6.80891 15.5306 7.0049 15.4882 7.21825C15.4458 7.43159 15.4675 7.65272 15.5506 7.85373C15.6337 8.05474 15.7745 8.22663 15.9552 8.3477C16.136 8.46877 16.3485 8.53359 16.566 8.534Z" fill="#8B95A1" fill-opacity="0.72"/>
</svg>
