<svg width="24" height="24" viewBox="0 0 24 24" fill="none" xmlns="http://www.w3.org/2000/svg">
<path d="M21.849 20.151L17.242 15.544C18.327 14.106 18.978 12.324 18.978 10.388C18.978 5.65201 15.124 1.79901 10.389 1.79901C5.653 1.80001 1.8 5.65301 1.8 10.389C1.8 15.124 5.653 18.978 10.389 18.978C12.324 18.978 14.107 18.327 15.545 17.242L20.152 21.849C20.386 22.083 20.693 22.2 21 22.2C21.307 22.2 21.614 22.083 21.849 21.848C22.317 21.38 22.317 20.62 21.849 20.151ZM4.2 10.389C4.2 6.97601 6.976 4.20001 10.389 4.20001C13.801 4.20001 16.577 6.97601 16.577 10.388C16.577 13.8 13.801 16.576 10.389 16.576C6.976 16.577 4.2 13.801 4.2 10.389Z" fill="#8B95A1"/>
</svg>
