<svg width="24" height="24" viewBox="0 0 24 24" fill="none" xmlns="http://www.w3.org/2000/svg">
<path fill-rule="evenodd" clip-rule="evenodd" d="M4.954 9.20403C4.44903 9.20403 3.96474 9.40463 3.60767 9.7617C3.2506 10.1188 3.05 10.6031 3.05 11.108V19.095C3.05 20.147 3.902 21 4.954 21H6.884V9.20403H4.954ZM20.413 6.99703H15.871V2.73603C15.8712 2.35369 15.7452 1.98197 15.5125 1.67858C15.2799 1.37519 14.9536 1.1571 14.5842 1.05816C14.2149 0.959217 13.8233 0.984966 13.4701 1.13141C13.1169 1.27785 12.8219 1.53679 12.631 1.86803L8.395 9.20403H8.384V21H17.618C18.4694 21 19.2962 20.7148 19.9665 20.1899C20.6368 19.665 21.1119 18.9306 21.316 18.104L23.186 10.54C23.2901 10.1192 23.2971 9.68016 23.2063 9.25622C23.1156 8.83228 22.9296 8.43455 22.6624 8.09315C22.3952 7.75175 22.0538 7.47564 21.6641 7.28573C21.2744 7.09582 20.8465 6.99709 20.413 6.99703Z" fill="#8B95A1"/>
</svg>
