<svg width="40" height="36" viewBox="0 0 40 36" fill="none" xmlns="http://www.w3.org/2000/svg">
<path fill-rule="evenodd" clip-rule="evenodd" d="M36.9318 15.6H8.85976L19.7618 4.69801C19.9876 4.47582 20.1672 4.21111 20.2902 3.91915C20.4133 3.6272 20.4773 3.31378 20.4786 2.99696C20.4799 2.68015 20.4184 2.36621 20.2978 2.07326C20.1771 1.78032 19.9997 1.51416 19.7756 1.29013C19.5516 1.06611 19.2855 0.888657 18.9925 0.768012C18.6996 0.647368 18.3856 0.585919 18.0688 0.587209C17.752 0.588499 17.4386 0.652503 17.1466 0.775529C16.8547 0.898555 16.59 1.07817 16.3678 1.30401L1.36776 16.304C1.36176 16.308 1.35976 16.316 1.35376 16.322C1.02473 16.6578 0.80156 17.0828 0.711961 17.5443C0.622362 18.0058 0.670278 18.4835 0.849761 18.918C0.969761 19.204 1.13976 19.458 1.35376 19.678L1.36776 19.698L16.3678 34.698C16.8378 35.166 17.4518 35.398 18.0638 35.398C18.5383 35.398 19.0022 35.2573 19.3968 34.9937C19.7914 34.7301 20.099 34.3555 20.2807 33.9171C20.4624 33.4787 20.5101 32.9963 20.4177 32.5309C20.3254 32.0654 20.0971 31.6378 19.7618 31.302L8.86176 20.4H36.9338C37.5703 20.4 38.1807 20.1472 38.6308 19.6971C39.0809 19.247 39.3338 18.6365 39.3338 18C39.3338 17.3635 39.0809 16.753 38.6308 16.303C38.1807 15.8529 37.5703 15.6 36.9338 15.6" fill="#8B95A1"/>
</svg>
