<svg width="24" height="24" viewBox="0 0 24 24" fill="none" xmlns="http://www.w3.org/2000/svg">
<path fill-rule="evenodd" clip-rule="evenodd" d="M7.533 9.21103L10.887 5.85603V15.037C10.887 15.3289 11.0029 15.6088 11.2093 15.8152C11.4157 16.0216 11.6956 16.1375 11.9875 16.1375C12.2794 16.1375 12.5593 16.0216 12.7657 15.8152C12.9721 15.6088 13.088 15.3289 13.088 15.037V5.85703L16.443 9.21103C16.5448 9.31368 16.6659 9.39515 16.7994 9.45075C16.9328 9.50635 17.0759 9.53498 17.2205 9.53498C17.3651 9.53498 17.5082 9.50635 17.6416 9.45075C17.7751 9.39515 17.8962 9.31368 17.998 9.21103C18.1002 9.10888 18.1813 8.98759 18.2366 8.8541C18.2919 8.72061 18.3204 8.57752 18.3204 8.43303C18.3204 8.28853 18.2919 8.14545 18.2366 8.01196C18.1813 7.87846 18.1002 7.75718 17.998 7.65503L12.765 2.42203C12.5582 2.2169 12.2788 2.10181 11.9875 2.10181C11.6962 2.10181 11.4168 2.2169 11.21 2.42203L5.97701 7.65503C5.78301 7.86382 5.67753 8.1397 5.68276 8.42466C5.688 8.70962 5.80352 8.98145 6.00505 9.18298C6.20658 9.38451 6.47841 9.50004 6.76337 9.50527C7.04833 9.5105 7.32421 9.40503 7.533 9.21103Z" fill="#8B95A1"/>
<path fill-rule="evenodd" clip-rule="evenodd" d="M20.381 13.093C19.774 13.093 19.28 13.586 19.28 14.193V18.4C19.28 19.117 18.697 19.7 17.981 19.7H5.996C5.279 19.7 4.696 19.117 4.696 18.4V14.192C4.696 13.9003 4.58011 13.6205 4.37382 13.4142C4.16753 13.2079 3.88774 13.092 3.596 13.092C3.30426 13.092 3.02447 13.2079 2.81818 13.4142C2.61189 13.6205 2.496 13.9003 2.496 14.192V18.4C2.496 20.33 4.066 21.9 5.996 21.9H17.981C19.91 21.9 21.481 20.33 21.481 18.4V14.192C21.481 13.9003 21.3651 13.6205 21.1588 13.4142C20.9525 13.2079 20.6727 13.092 20.381 13.092" fill="#8B95A1"/>
</svg>
