<svg width="24" height="24" viewBox="0 0 24 24" fill="none" xmlns="http://www.w3.org/2000/svg">
<path fill-rule="evenodd" clip-rule="evenodd" d="M17.636 3.686C17.4787 3.33305 17.2226 3.03321 16.8985 2.82273C16.5745 2.61226 16.1964 2.50017 15.81 2.5H8.19C7.80359 2.50017 7.42551 2.61226 7.10146 2.82273C6.77741 3.03321 6.52127 3.33305 6.364 3.686L4.684 7.453H19.316L17.636 3.686ZM17.58 15.47C17.3929 15.47 17.2076 15.4331 17.0347 15.3615C16.8618 15.2899 16.7047 15.185 16.5724 15.0526C16.44 14.9203 16.3351 14.7632 16.2635 14.5903C16.1919 14.4174 16.155 14.2321 16.155 14.045C16.155 13.8579 16.1919 13.6726 16.2635 13.4997C16.3351 13.3268 16.44 13.1697 16.5724 13.0374C16.7047 12.905 16.8618 12.8001 17.0347 12.7285C17.2076 12.6569 17.3929 12.62 17.58 12.62C17.9579 12.62 18.3204 12.7701 18.5876 13.0374C18.8549 13.3046 19.005 13.6671 19.005 14.045C19.005 14.4229 18.8549 14.7854 18.5876 15.0526C18.3204 15.3199 17.9579 15.47 17.58 15.47ZM6.418 15.47C6.23086 15.47 6.04556 15.4331 5.87267 15.3615C5.69979 15.2899 5.54269 15.185 5.41037 15.0526C5.27805 14.9203 5.17308 14.7632 5.10147 14.5903C5.02986 14.4174 4.993 14.2321 4.993 14.045C4.993 13.8579 5.02986 13.6726 5.10147 13.4997C5.17308 13.3268 5.27805 13.1697 5.41037 13.0374C5.54269 12.905 5.69979 12.8001 5.87267 12.7285C6.04556 12.6569 6.23086 12.62 6.418 12.62C6.79593 12.62 7.15839 12.7701 7.42563 13.0374C7.69287 13.3046 7.843 13.6671 7.843 14.045C7.843 14.4229 7.69287 14.7854 7.42563 15.0526C7.15839 15.3199 6.79593 15.47 6.418 15.47ZM19.982 8.953H4.017C3.48657 8.953 2.97786 9.16371 2.60278 9.53879C2.22771 9.91386 2.017 10.4226 2.017 10.953V20.5C2.017 20.7652 2.12236 21.0196 2.30989 21.2071C2.49743 21.3946 2.75178 21.5 3.017 21.5H5.461C5.72621 21.5 5.98057 21.3946 6.16811 21.2071C6.35564 21.0196 6.461 20.7652 6.461 20.5V19.136H17.539V20.5C17.539 20.7652 17.6444 21.0196 17.8319 21.2071C18.0194 21.3946 18.2738 21.5 18.539 21.5H20.983C21.2482 21.5 21.5026 21.3946 21.6901 21.2071C21.8776 21.0196 21.983 20.7652 21.983 20.5V10.952C21.983 9.847 21.089 8.952 19.983 8.952" fill="#8B95A1"/>
</svg>
