<svg width="24" height="24" viewBox="0 0 24 24" fill="none" xmlns="http://www.w3.org/2000/svg">
<path fill-rule="evenodd" clip-rule="evenodd" d="M1.1 12.012C1.1 11.4045 1.59249 10.912 2.2 10.912H13.929C14.5365 10.912 15.029 11.4045 15.029 12.012C15.029 12.6196 14.5365 13.112 13.929 13.112H2.2C1.59249 13.112 1.1 12.6196 1.1 12.012Z" fill="#8B95A1"/>
<path fill-rule="evenodd" clip-rule="evenodd" d="M8.21097 6.00232C8.64046 6.43198 8.64033 7.12846 8.21067 7.55796L3.75578 12.0111L8.21082 16.4662C8.64039 16.8958 8.64039 17.5922 8.21082 18.0218C7.78124 18.4514 7.08476 18.4514 6.65518 18.0218L1.42218 12.7888C1.21587 12.5825 1.09997 12.3027 1.1 12.0109C1.10003 11.7191 1.21598 11.4393 1.42233 11.233L6.65533 6.00203C7.08499 5.57253 7.78147 5.57267 8.21097 6.00232Z" fill="#8B95A1"/>
<path fill-rule="evenodd" clip-rule="evenodd" d="M14.237 4.72002C13.8922 4.72002 13.5616 4.85698 13.3178 5.10078C13.074 5.34458 12.937 5.67524 12.937 6.02002V7.71402C12.937 8.32153 12.4445 8.81402 11.837 8.81402C11.2295 8.81402 10.737 8.32153 10.737 7.71402V6.02002C10.737 5.09176 11.1057 4.20152 11.7621 3.54515C12.4185 2.88877 13.3087 2.52002 14.237 2.52002H18.685C19.6133 2.52002 20.5035 2.88877 21.1599 3.54515C21.8163 4.20152 22.185 5.09176 22.185 6.02002V18.005C22.1846 18.933 21.8157 19.8233 21.1594 20.4794C20.503 21.1355 19.613 21.504 18.685 21.504H14.237C13.3087 21.504 12.4185 21.1353 11.7621 20.4789C11.1058 19.8225 10.737 18.9323 10.737 18.004V16.314C10.737 15.7065 11.2295 15.214 11.837 15.214C12.4445 15.214 12.937 15.7065 12.937 16.314V18.004C12.937 18.3488 13.074 18.6795 13.3178 18.9233C13.5616 19.1671 13.8922 19.304 14.237 19.304H18.685C19.0297 19.304 19.3603 19.1671 19.604 18.9234C19.8478 18.6798 19.9849 18.3492 19.985 18.0046V6.02002C19.985 5.67524 19.848 5.34458 19.6042 5.10078C19.3604 4.85698 19.0298 4.72002 18.685 4.72002H14.237Z" fill="#8B95A1"/>
</svg>
