<svg width="24" height="24" viewBox="0 0 24 24" fill="none" xmlns="http://www.w3.org/2000/svg">
<path d="M21.8067 6.19334L17.8067 2.19334C17.7444 2.13156 17.6705 2.08267 17.5893 2.0495C17.508 2.01632 17.4211 1.9995 17.3333 2.00001H16V7.33334C16 7.68696 15.8595 8.0261 15.6095 8.27615C15.3594 8.5262 15.0203 8.66667 14.6667 8.66667H9.33333C8.97971 8.66667 8.64057 8.5262 8.39052 8.27615C8.14047 8.0261 8 7.68696 8 7.33334V2.00001H4C3.46957 2.00001 2.96086 2.21072 2.58579 2.5858C2.21071 2.96087 2 3.46958 2 4.00001V20C2 20.5304 2.21071 21.0391 2.58579 21.4142C2.96086 21.7893 3.46957 22 4 22H5.33333V16C5.33333 15.4696 5.54404 14.9609 5.91912 14.5858C6.29419 14.2107 6.8029 14 7.33333 14H16.6667C17.1971 14 17.7058 14.2107 18.0809 14.5858C18.4559 14.9609 18.6667 15.4696 18.6667 16V22H20C20.5304 22 21.0391 21.7893 21.4142 21.4142C21.7893 21.0391 22 20.5304 22 20V6.66667C22.0005 6.57894 21.9837 6.49196 21.9505 6.41074C21.9173 6.32951 21.8684 6.25563 21.8067 6.19334Z" fill="#8B95A1"/>
<path d="M9.33331 2H14.6666V7.33333H9.33331V2Z" fill="#8B95A1"/>
<path d="M16.6666 15.3333H7.33332C7.15651 15.3333 6.98694 15.4036 6.86192 15.5286C6.73689 15.6536 6.66666 15.8232 6.66666 16V22H17.3333V16C17.3333 15.8232 17.2631 15.6536 17.1381 15.5286C17.013 15.4036 16.8435 15.3333 16.6666 15.3333Z" fill="#8B95A1"/>
</svg>
