<svg width="24" height="24" viewBox="0 0 24 24" fill="none" xmlns="http://www.w3.org/2000/svg">
<path d="M11.3 11.3V1.03601C8.599 1.20601 6.164 2.34301 4.34 4.11501C6.208 5.98001 7.426 8.49801 7.602 11.3H11.3Z" fill="#8B95A1"/>
<path d="M6.202 11.3C6.03 8.90901 4.988 6.76001 3.4 5.15201C2.038 6.86001 1.182 8.98201 1.035 11.3H6.202Z" fill="#8B95A1"/>
<path d="M12.7 11.3H16.398C16.573 8.49901 17.792 5.98101 19.66 4.11501C17.836 2.34301 15.401 1.20601 12.7 1.03601V11.3Z" fill="#8B95A1"/>
<path d="M22.965 11.3C22.818 8.98201 21.962 6.86001 20.6 5.15201C19.012 6.75901 17.97 8.90801 17.799 11.299H22.965V11.3Z" fill="#8B95A1"/>
<path d="M16.398 12.7H12.7V22.965C15.401 22.795 17.836 21.658 19.66 19.885C17.792 18.019 16.574 15.501 16.398 12.7Z" fill="#8B95A1"/>
<path d="M1.035 12.7C1.181 15.017 2.038 17.139 3.4 18.847C4.988 17.24 6.03 15.091 6.201 12.7H1.035Z" fill="#8B95A1"/>
<path d="M17.798 12.7C17.969 15.091 19.011 17.24 20.599 18.847C21.961 17.139 22.818 15.017 22.964 12.7H17.798Z" fill="#8B95A1"/>
<path d="M11.3 12.7H7.602C7.427 15.501 6.208 18.019 4.34 19.885C6.164 21.657 8.599 22.794 11.3 22.965V12.7Z" fill="#8B95A1"/>
</svg>
