<svg width="24" height="24" viewBox="0 0 24 24" fill="none" xmlns="http://www.w3.org/2000/svg">
<path fill-rule="evenodd" clip-rule="evenodd" d="M5.229 14.0005C4.96629 14.0004 4.70617 13.9486 4.46348 13.848C4.22079 13.7474 4.0003 13.6 3.81458 13.4142C3.62886 13.2284 3.48156 13.0078 3.38109 12.7651C3.28061 12.5224 3.22893 12.2622 3.229 11.9995C3.22907 11.7368 3.28088 11.4767 3.38147 11.234C3.48207 10.9913 3.62948 10.7708 3.81529 10.5851C4.0011 10.3994 4.22167 10.2521 4.4644 10.1516C4.70714 10.0511 4.96729 9.99945 5.23 9.99951C5.76057 9.99964 6.26935 10.2105 6.64442 10.5858C7.01949 10.9611 7.23013 11.4699 7.23 12.0005C7.22987 12.5311 7.01897 13.0399 6.64371 13.4149C6.26845 13.79 5.75957 14.0006 5.229 14.0005ZM12 14.0005C11.4696 14.0005 10.9609 13.7898 10.5858 13.4147C10.2107 13.0397 10 12.5309 10 12.0005C10 11.4701 10.2107 10.9614 10.5858 10.5863C10.9609 10.2112 11.4696 10.0005 12 10.0005C12.5304 10.0005 13.0391 10.2112 13.4142 10.5863C13.7893 10.9614 14 11.4701 14 12.0005C14 12.5309 13.7893 13.0397 13.4142 13.4147C13.0391 13.7898 12.5304 14.0005 12 14.0005ZM18.77 14.0005C18.5073 14.0004 18.2472 13.9486 18.0045 13.848C17.7618 13.7474 17.5413 13.6 17.3556 13.4142C17.1699 13.2284 17.0226 13.0078 16.9221 12.7651C16.8216 12.5224 16.7699 12.2622 16.77 11.9995C16.7701 11.7368 16.8219 11.4767 16.9225 11.234C17.0231 10.9913 17.1705 10.7708 17.3563 10.5851C17.5421 10.3994 17.7627 10.2521 18.0054 10.1516C18.2481 10.0511 18.5083 9.99945 18.771 9.99951C19.3016 9.99964 19.8103 10.2105 20.1854 10.5858C20.5605 10.9611 20.7711 11.4699 20.771 12.0005C20.7709 12.5311 20.56 13.0399 20.1847 13.4149C19.8095 13.79 19.3006 14.0006 18.77 14.0005Z" fill="#8B95A1"/>
</svg>
