<svg width="24" height="24" viewBox="0 0 24 24" fill="none" xmlns="http://www.w3.org/2000/svg">
<path fill-rule="evenodd" clip-rule="evenodd" d="M13.154 1.92702L15.481 6.64202C15.668 7.02102 16.03 7.28402 16.449 7.34502L21.652 8.10102C22.706 8.25402 23.128 9.55102 22.364 10.294L18.599 13.964C18.4498 14.1096 18.3381 14.2892 18.2737 14.4874C18.2092 14.6856 18.1939 14.8966 18.229 15.102L19.118 20.284C19.298 21.335 18.196 22.135 17.253 21.64L12.599 19.193C12.4146 19.096 12.2094 19.0453 12.001 19.0453C11.7926 19.0453 11.5874 19.096 11.403 19.193L6.749 21.64C5.805 22.135 4.703 21.335 4.883 20.284L5.772 15.102C5.80701 14.8966 5.79163 14.6857 5.72718 14.4874C5.66274 14.2892 5.55115 14.1096 5.402 13.964L1.637 10.294C0.874 9.55102 1.295 8.25402 2.35 8.10102L7.552 7.34502C7.971 7.28402 8.334 7.02102 8.521 6.64202L10.847 1.92702C11.319 0.971022 12.682 0.971022 13.154 1.92702Z" fill="#8B95A1"/>
</svg>
