<svg width="24" height="24" viewBox="0 0 24 24" fill="none" xmlns="http://www.w3.org/2000/svg">
<path fill-rule="evenodd" clip-rule="evenodd" d="M12.0001 1.00024C9.13116 1.00024 7.00006 3.57666 7.00006 6.50024C7.00006 9.42383 9.13116 12.0002 12.0001 12.0002C14.869 12.0002 17.0001 9.42383 17.0001 6.50024C17.0001 3.57666 14.869 1.00024 12.0001 1.00024Z" fill="#8C939E"/>
<path opacity="0.4" fill-rule="evenodd" clip-rule="evenodd" d="M9.16673 14.0004C6.22899 14.0004 3.4627 15.3835 1.70006 17.7337L1.65006 17.8004C1.22814 18.3629 1.00006 19.0472 1.00006 19.7504C1.00006 21.5453 2.45514 23.0004 4.25006 23.0004H19.7501C21.545 23.0004 23.0001 21.5453 23.0001 19.7504C23.0001 19.0472 22.772 18.3629 22.3501 17.8004L22.3001 17.7337C20.5374 15.3835 17.7711 14.0004 14.8334 14.0004H9.16673Z" fill="#8C939E"/>
</svg>
