<svg width="22" height="22" viewBox="0 0 22 22" fill="none" xmlns="http://www.w3.org/2000/svg">
<path fill-rule="evenodd" clip-rule="evenodd" d="M11 16.118C10.6817 16.118 10.3765 15.9916 10.1515 15.7665C9.92643 15.5415 9.8 15.2363 9.8 14.918C9.8 14.5997 9.92643 14.2945 10.1515 14.0695C10.3765 13.8444 10.6817 13.718 11 13.718C11.3183 13.718 11.6235 13.8444 11.8485 14.0695C12.0736 14.2945 12.2 14.5997 12.2 14.918C12.2 15.2363 12.0736 15.5415 11.8485 15.7665C11.6235 15.9916 11.3183 16.118 11 16.118ZM10 6.283C10 6.01778 10.1054 5.76343 10.2929 5.57589C10.4804 5.38836 10.7348 5.283 11 5.283C11.2652 5.283 11.5196 5.38836 11.7071 5.57589C11.8946 5.76343 12 6.01778 12 6.283V11.283C12 11.5482 11.8946 11.8026 11.7071 11.9901C11.5196 12.1776 11.2652 12.283 11 12.283C10.7348 12.283 10.4804 12.1776 10.2929 11.9901C10.1054 11.8026 10 11.5482 10 11.283V6.283ZM11 0C4.925 0 0 4.925 0 11C0 17.076 4.925 22 11 22C17.075 22 22 17.076 22 11C22 4.925 17.075 0 11 0Z" fill="#8B95A1"/>
</svg>
