<svg width="92" height="20" viewBox="0 0 92 20" fill="none" xmlns="http://www.w3.org/2000/svg">
<path d="M84.1838 6.036C84.4955 5.54865 84.9255 5.15503 85.474 4.85513C86.0225 4.55522 86.6645 4.40527 87.4 4.40527C88.2601 4.40527 89.0392 4.62395 89.7373 5.06131C90.4354 5.49867 90.9839 6.12347 91.3828 6.93571C91.7942 7.74794 91.9999 8.69139 91.9999 9.76604C91.9999 10.8407 91.7942 11.7904 91.3828 12.6151C90.9839 13.4274 90.4354 14.0584 89.7373 14.5083C89.0392 14.9456 88.2601 15.1643 87.4 15.1643C86.677 15.1643 86.035 15.0143 85.474 14.7144C84.9255 14.4145 84.4955 14.0272 84.1838 13.5523V20.0002H80.9863V4.55522H84.1838V6.036ZM88.7463 9.76604C88.7463 8.9663 88.5219 8.3415 88.0731 7.89165C87.6368 7.4293 87.0946 7.19812 86.4464 7.19812C85.8106 7.19812 85.2683 7.4293 84.8196 7.89165C84.3833 8.354 84.1651 8.98504 84.1651 9.78479C84.1651 10.5845 84.3833 11.2156 84.8196 11.6779C85.2683 12.1403 85.8106 12.3715 86.4464 12.3715C87.0821 12.3715 87.6244 12.1403 88.0731 11.6779C88.5219 11.2031 88.7463 10.5658 88.7463 9.76604Z" fill="#052236"/>
<path d="M77.2676 3.46763C76.7067 3.46763 76.2454 3.30518 75.8839 2.98029C75.5349 2.6429 75.3604 2.23053 75.3604 1.74319C75.3604 1.24335 75.5349 0.830982 75.8839 0.506087C76.2454 0.168696 76.7067 0 77.2676 0C77.8161 0 78.2649 0.168696 78.6139 0.506087C78.9754 0.830982 79.1562 1.24335 79.1562 1.74319C79.1562 2.23053 78.9754 2.6429 78.6139 2.98029C78.2649 3.30518 77.8161 3.46763 77.2676 3.46763ZM78.857 4.55478V15.0139H75.6595V4.55478H78.857Z" fill="#052236"/>
<path d="M71.0451 6.29803C71.4191 5.72322 71.8866 5.27336 72.4475 4.94847C73.0085 4.61108 73.6318 4.44238 74.3174 4.44238V7.83504H73.4386C72.6408 7.83504 72.0424 8.00998 71.6435 8.35987C71.2446 8.69726 71.0451 9.29706 71.0451 10.1593V15.014H67.8477V4.55485H71.0451V6.29803Z" fill="#052236"/>
<path d="M66.2529 12.2963V15.0142H64.6261C63.4667 15.0142 62.563 14.733 61.9147 14.1707C61.2665 13.5959 60.9424 12.6649 60.9424 11.3778V7.21668H59.6709V4.55504H60.9424V2.00586H64.1399V4.55504H66.2342V7.21668H64.1399V11.4153C64.1399 11.7277 64.2147 11.9526 64.3643 12.0901C64.5139 12.2276 64.7632 12.2963 65.1122 12.2963H66.2529Z" fill="#052236"/>
<path d="M54.4391 4.44249C55.6358 4.44249 56.5956 4.84236 57.3187 5.6421C58.0417 6.42935 58.4032 7.5165 58.4032 8.90355V15.0141H55.2244V9.33466C55.2244 8.63489 55.0436 8.09131 54.6821 7.70394C54.3206 7.31656 53.8345 7.12287 53.2236 7.12287C52.6128 7.12287 52.1266 7.31656 51.7651 7.70394C51.4036 8.09131 51.2229 8.63489 51.2229 9.33466V15.0141H48.0254V1.14355H51.2229V5.96075C51.547 5.4984 51.9895 5.12977 52.5505 4.85486C53.1114 4.57994 53.741 4.44249 54.4391 4.44249Z" fill="#052236"/>
<path d="M36.2559 9.78479C36.2559 8.69764 36.474 7.74795 36.9103 6.93571C37.3591 6.12347 37.9761 5.49867 38.7615 5.06131C39.5593 4.62395 40.4693 4.40527 41.4915 4.40527C42.8004 4.40527 43.8912 4.74891 44.7638 5.43619C45.6489 6.12347 46.2285 7.09191 46.5028 8.3415H43.0996C42.8129 7.54176 42.2582 7.14189 41.4354 7.14189C40.8495 7.14189 40.382 7.37307 40.033 7.83542C39.684 8.28527 39.5094 8.93506 39.5094 9.78479C39.5094 10.6345 39.684 11.2906 40.033 11.7529C40.382 12.2028 40.8495 12.4277 41.4354 12.4277C42.2582 12.4277 42.8129 12.0278 43.0996 11.2281H46.5028C46.2285 12.4527 45.6489 13.4149 44.7638 14.1146C43.8787 14.8144 42.7879 15.1643 41.4915 15.1643C40.4693 15.1643 39.5593 14.9456 38.7615 14.5083C37.9761 14.0709 37.3591 13.4461 36.9103 12.6339C36.474 11.8216 36.2559 10.8719 36.2559 9.78479Z" fill="#052236"/>
<path d="M35.2968 12.2963V15.0142H33.67C32.5107 15.0142 31.6069 14.733 30.9587 14.1707C30.3105 13.5959 29.9864 12.6649 29.9864 11.3778V7.21668H28.7148V4.55504H29.9864V2.00586H33.1838V4.55504H35.2781V7.21668H33.1838V11.4153C33.1838 11.7277 33.2586 11.9526 33.4082 12.0901C33.5578 12.2276 33.8071 12.2963 34.1562 12.2963H35.2968Z" fill="#052236"/>
<path d="M16.3428 9.76604C16.3428 8.69139 16.5422 7.74795 16.9411 6.93571C17.3525 6.12347 17.9072 5.49867 18.6053 5.06131C19.3034 4.62395 20.0825 4.40527 20.9427 4.40527C21.6781 4.40527 22.3201 4.55522 22.8686 4.85513C23.4296 5.15503 23.8597 5.54866 24.1588 6.036V4.55522H27.3563V15.0143H24.1588V13.5336C23.8472 14.0209 23.4109 14.4145 22.8499 14.7144C22.3014 15.0143 21.6594 15.1643 20.924 15.1643C20.0763 15.1643 19.3034 14.9456 18.6053 14.5083C17.9072 14.0584 17.3525 13.4274 16.9411 12.6151C16.5422 11.7904 16.3428 10.8407 16.3428 9.76604ZM24.1588 9.78479C24.1588 8.98505 23.9345 8.354 23.4857 7.89165C23.0494 7.4293 22.5134 7.19812 21.8776 7.19812C21.2418 7.19812 20.6996 7.4293 20.2508 7.89165C19.8145 8.3415 19.5964 8.9663 19.5964 9.76604C19.5964 10.5658 19.8145 11.2031 20.2508 11.6779C20.6996 12.1403 21.2418 12.3715 21.8776 12.3715C22.5134 12.3715 23.0494 12.1403 23.4857 11.6779C23.9345 11.2156 24.1588 10.5845 24.1588 9.78479Z" fill="#052236"/>
<path d="M14.8655 1.85547V15.0137H11.668V7.12252L8.73231 15.0137H6.15188L3.19748 7.10378V15.0137H0V1.85547H3.77714L7.46079 10.965L11.107 1.85547H14.8655Z" fill="#052236"/>
</svg>
