<svg width="30" height="16" viewBox="0 0 30 16" fill="none" xmlns="http://www.w3.org/2000/svg">
<path fill-rule="evenodd" clip-rule="evenodd" d="M0.0426025 4.94133C0.0426025 2.27393 2.20496 0.111572 4.87236 0.111572H21.7765C24.4439 0.111572 26.6063 2.27393 26.6063 4.94133V10.9785C26.6063 13.6459 24.4439 15.8083 21.7765 15.8083H4.87237C2.20496 15.8083 0.0426025 13.6459 0.0426025 10.9785V4.94133Z" fill="#E8E8E8"/>
<path d="M0.0426025 4.94133C0.0426025 2.27393 2.20496 0.111572 4.87236 0.111572H19.3616V15.8083H4.87236C2.20496 15.8083 0.0426025 13.6459 0.0426025 10.9785V4.94133Z" fill="#052236"/>
<path d="M27.8137 5.91663V10.8164C28.7995 10.4015 29.4405 9.43608 29.4405 8.36654C29.4405 7.29699 28.7995 6.33161 27.8137 5.91663Z" fill="#E8E8E8"/>
<path d="M6.21138 12.186L9.83724 5.24673V5.1406H5.54517V3.67257H11.6295V5.15829L8.07442 12.186H6.21138Z" fill="white"/>
<path d="M16.4598 12.4041C15.8427 12.4041 15.2925 12.2724 14.809 12.0091C14.3295 11.7458 13.9443 11.3645 13.6535 10.8653C13.1779 10.1343 12.9401 9.17719 12.9401 7.99412C12.9401 6.58308 13.2545 5.47469 13.8834 4.66895C14.5123 3.8632 15.3809 3.46033 16.4893 3.46033C17.299 3.46033 17.9888 3.67847 18.5587 4.11475C19.1325 4.55103 19.4804 5.12488 19.6022 5.8363H17.8394C17.7569 5.55723 17.5918 5.33516 17.3442 5.17008C17.1005 5.005 16.8116 4.92246 16.4775 4.92246C15.8958 4.92246 15.4379 5.18384 15.1038 5.70659C14.7736 6.22541 14.6184 6.927 14.638 7.81136H14.7442C14.9368 7.41045 15.2217 7.10191 15.599 6.88573C15.9803 6.66562 16.4185 6.55557 16.9138 6.55557C17.7195 6.55557 18.3877 6.82284 18.9183 7.35739C19.4489 7.89193 19.7142 8.56601 19.7142 9.37961C19.7142 10.264 19.4096 10.9891 18.8004 11.5551C18.1912 12.1211 17.411 12.4041 16.4598 12.4041ZM15.3455 10.5057C15.6403 10.7965 16.0058 10.942 16.4421 10.942C16.8784 10.942 17.2439 10.7985 17.5387 10.5116C17.8374 10.2207 17.9868 9.8611 17.9868 9.43267C17.9868 9.00032 17.8414 8.64265 17.5505 8.35966C17.2597 8.07273 16.8922 7.92927 16.448 7.92927C16.0039 7.92927 15.6344 8.07077 15.3396 8.35376C15.0488 8.63675 14.9033 8.9905 14.9033 9.41499C14.9033 9.84734 15.0507 10.2109 15.3455 10.5057Z" fill="white"/>
</svg>
