<svg width="22" height="15" viewBox="0 0 22 15" fill="none" xmlns="http://www.w3.org/2000/svg">
<path d="M11.7328 3.59457C11.7328 2.95337 12.2526 2.43357 12.8938 2.43357H14.0548C14.696 2.43357 15.2158 2.95337 15.2158 3.59457V12.8826C15.2158 13.5238 14.696 14.0436 14.0548 14.0436H12.8938C12.2526 14.0436 11.7328 13.5238 11.7328 12.8826V3.59457Z" fill="#052236"/>
<path d="M17.5378 1.27257C17.5378 0.631369 18.0576 0.111572 18.6988 0.111572H19.8598C20.501 0.111572 21.0208 0.63137 21.0208 1.27257V12.8826C21.0208 13.5238 20.501 14.0436 19.8598 14.0436H18.6988C18.0576 14.0436 17.5378 13.5238 17.5378 12.8826V1.27257Z" fill="#052236"/>
<path d="M5.9278 7.65807C5.9278 7.01687 6.4476 6.49707 7.0888 6.49707H8.2498C8.891 6.49707 9.4108 7.01687 9.4108 7.65807V12.8826C9.4108 13.5238 8.891 14.0436 8.2498 14.0436H7.0888C6.4476 14.0436 5.9278 13.5238 5.9278 12.8826V7.65807Z" fill="#052236"/>
<path d="M0.122803 10.5606C0.122803 9.91937 0.6426 9.39957 1.2838 9.39957H2.4448C3.086 9.39957 3.6058 9.91937 3.6058 10.5606V12.8826C3.6058 13.5238 3.086 14.0436 2.4448 14.0436H1.2838C0.6426 14.0436 0.122803 13.5238 0.122803 12.8826V10.5606Z" fill="#052236"/>
</svg>
