<svg width="21" height="14" viewBox="0 0 21 14" fill="none" xmlns="http://www.w3.org/2000/svg">
<path fill-rule="evenodd" clip-rule="evenodd" d="M10.5557 3.11569C13.4194 3.11582 16.1735 4.23899 18.2489 6.25305C18.4052 6.40855 18.655 6.40658 18.809 6.24865L20.3029 4.70966C20.3808 4.62955 20.4243 4.52105 20.4236 4.40816C20.423 4.29527 20.3783 4.18729 20.2994 4.10813C14.8521 -1.22061 6.25837 -1.22061 0.811062 4.10813C0.732154 4.18723 0.687382 4.29518 0.686655 4.40807C0.685927 4.52096 0.729303 4.6295 0.807185 4.70966L2.30155 6.24865C2.45538 6.40682 2.70537 6.40878 2.86156 6.25305C4.93725 4.23885 7.69173 3.11568 10.5557 3.11569ZM10.597 7.76184C12.1704 7.76174 13.6877 8.3587 14.854 9.43671C15.0117 9.58971 15.2602 9.58639 15.414 9.42924L16.9062 7.89024C16.9848 7.80951 17.0284 7.7 17.0272 7.58621C17.0261 7.47241 16.9803 7.36383 16.9002 7.28475C13.3486 3.91252 7.84848 3.91252 4.2969 7.28475C4.21667 7.36383 4.1709 7.47246 4.16985 7.5863C4.16879 7.70013 4.21255 7.80963 4.2913 7.89024L5.78308 9.42924C5.93685 9.58639 6.18534 9.58971 6.34309 9.43671C7.50861 8.35941 9.02466 7.76251 10.597 7.76184ZM13.6313 10.7657C13.6336 10.8799 13.5897 10.9899 13.5099 11.0698L10.9286 13.7288C10.853 13.8069 10.7498 13.8509 10.6422 13.8509C10.5345 13.8509 10.4314 13.8069 10.3557 13.7288L7.77406 11.0698C7.69431 10.9898 7.65044 10.8798 7.6528 10.7656C7.65517 10.6515 7.70356 10.5435 7.78656 10.467C9.43502 9.04378 11.8493 9.04378 13.4978 10.467C13.5807 10.5435 13.6291 10.6516 13.6313 10.7657Z" fill="#052236"/>
</svg>
